<?xml version="1.0" standalone="no"?>
<!DOCTYPE svg PUBLIC "-//W3C//DTD SVG 1.1//EN" "http://www.w3.org/Graphics/SVG/1.1/DTD/svg11.dtd" >
<svg xmlns="http://www.w3.org/2000/svg" xmlns:xlink="http://www.w3.org/1999/xlink" version="1.1">
<metadata>
Created by FontForge 20170924 at Fri Jun  4 17:15:47 2004
 By www-data
Copyright (c) 1991 Adobe Systems Incorporated. All Rights Reserved.Berthold Akzidenz Grotesk is a registered trademark of H. Berthold AG.
</metadata>
<defs>
<font id="AkzidenzGroteskRegular" horiz-adv-x="271" >
  <font-face 
    font-family="AkzidenzGroteskRegular"
    font-weight="400"
    font-stretch="normal"
    units-per-em="1000"
    panose-1="0 0 4 0 0 0 0 0 0 0"
    ascent="800"
    descent="-200"
    x-height="471"
    cap-height="706"
    bbox="-155 -250 1227 944"
    underline-thickness="50"
    underline-position="-125"
    unicode-range="U+0020-F002"
  />
<missing-glyph horiz-adv-x="500" 
d="M63 0v944h375v-944h-375zM125 63h250v819h-250v-819z" />
    <glyph glyph-name=".notdef" horiz-adv-x="500" 
d="M63 0v944h375v-944h-375zM125 63h250v819h-250v-819z" />
    <glyph glyph-name=".null" horiz-adv-x="0" 
 />
    <glyph glyph-name="glyph2" 
 />
    <glyph glyph-name="space" unicode=" " 
 />
    <glyph glyph-name="exclam" unicode="!" 
d="M139 147l-24 282v277h79v-288l-24 -271h-31zM115 0v90h79v-90h-79z" />
    <glyph glyph-name="quotedbl" unicode="&#x22;" horiz-adv-x="396" 
d="M343 690v0l-40 -256h-23l-39 244q-1 6 -1 19q0 52 54 52q34 0 46 -27q5 -11 3 -32zM156 690v0l-41 -256h-23l-39 254q-1 7 -1 9q0 23 16 37.5t39 14.5q30 0 43 -23q6 -10 6 -36z" />
    <glyph glyph-name="numbersign" unicode="#" horiz-adv-x="667" 
d="M450 229l-33 -229h-79l33 229h-111l-33 -229h-81l35 229h-139v77h149l16 108h-142v77h152l31 214h80l-31 -214h110l32 214h78l-30 -214h138v-77h-148l-16 -108h139v-77h-150zM270 306h112l15 108h-111z" />
    <glyph glyph-name="dollar" unicode="$" horiz-adv-x="625" 
d="M288 826h67v-111q95 -21 143 -58q66 -51 85 -130l-93 -9q-10 30 -29 56q-41 56 -106 65v-236q245 -66 245 -217q0 -93 -78 -152q-72 -54 -167 -51v-119h-67v119q-104 11 -172 65q-73 58 -95 156l101 12q5 -24 8 -31q8 -21 26 -46q46 -62 132 -78v253q-48 14 -76 26
q-148 61 -148 181q0 88 71 140q59 44 153 54v111zM288 422v220q-37 -4 -61 -16q-62 -31 -62 -93q0 -47 39 -75q25 -18 84 -36zM355 295v-237q32 3 51 8q91 24 91 107q0 49 -49 82q-30 20 -93 40z" />
    <glyph glyph-name="percent" unicode="%" horiz-adv-x="896" 
d="M849 214q-1 -92 -35 -150q-42 -73 -127 -73q-52 0 -92 31q-72 56 -72 197q0 140 75 200q39 31 87 31q55 0 95 -37q37 -34 55 -89q15 -45 14 -110zM784 213q0 178 -99 178q-72 0 -90 -97q-7 -38 -7 -74q0 -172 100 -172q59 0 83 72q13 39 13 93zM566 682l54 -26l-317 -685
l-55 26zM353 450q-1 -135 -70 -193q-39 -33 -93 -33q-83 0 -127 76q-37 62 -37 151t36 153q44 79 126 79q85 0 129 -78q37 -64 36 -155zM288 450q0 176 -99 176q-98 0 -98 -170q0 -174 99 -174q98 0 98 168z" />
    <glyph glyph-name="ampersand" unicode="&#x26;" horiz-adv-x="604" 
d="M467 325h76q-13 -101 -76 -197q46 -52 97 -52q5 0 29 3v-83q-20 -4 -37 -4q-86 0 -147 72q-88 -73 -177 -73q-83 0 -138 55t-55 138q0 120 104 185q16 10 59 37q-33 89 -33 130q0 71 43.5 117.5t114.5 46.5q63 0 104.5 -39t41.5 -101q0 -67 -56 -120q-34 -33 -98 -67
q52 -102 101 -179q34 64 47 131zM283 443q110 48 110 127q0 30 -18.5 50t-47.5 20q-35 0 -56 -25.5t-21 -61.5q0 -44 33 -110zM236 337q-113 -53 -113 -143q0 -52 35.5 -89t87.5 -37q56 0 116 52q-83 123 -126 217z" />
    <glyph glyph-name="quotesingle" unicode="'" horiz-adv-x="208" 
d="M156 690v0l-41 -256h-23l-39 254q-1 7 -1 9q0 23 16 37.5t39 14.5q30 0 43 -23q6 -10 6 -36z" />
    <glyph glyph-name="parenleft" unicode="(" horiz-adv-x="313" 
d="M235 765h65q-132 -230 -132 -444q0 -109 36.5 -232t95.5 -215h-65q-50 70 -90 169q-58 143 -58 275q0 84 27.5 185t69.5 175q14 24 51 87z" />
    <glyph glyph-name="parenright" unicode=")" horiz-adv-x="313" 
d="M77 -126h-65q132 223 132 444q0 235 -132 447h65q148 -224 148 -445q0 -122 -51 -259q-32 -86 -97 -187z" />
    <glyph glyph-name="asterisk" unicode="*" horiz-adv-x="375" 
d="M158 706h60v-118l114 36l17 -59l-114 -36l75 -93l-49 -39l-71 95l-67 -95l-51 32l71 100l-117 36l18 59l114 -36v118z" />
    <glyph glyph-name="plus" unicode="+" horiz-adv-x="667" 
d="M372 251v-251h-80v251h-249v80h249v249h80v-249h251v-80h-251z" />
    <glyph glyph-name="comma" unicode="," horiz-adv-x="229" 
d="M63 109h99v-51q0 -68 -9 -112q-7 -36 -33 -102h-46q28 73 32 156h-43v109z" />
    <glyph glyph-name="hyphen" unicode="-" horiz-adv-x="292" 
d="M45 333h202v-76h-202v76z" />
    <glyph glyph-name="hyphen" unicode="&#x2010;" horiz-adv-x="292" 
d="M45 333h202v-76h-202v76z" />
    <glyph glyph-name="period" unicode="." horiz-adv-x="229" 
d="M64 113h99v-113h-99v113z" />
    <glyph glyph-name="slash" unicode="/" horiz-adv-x="333" 
d="M246 702h75l-231 -702h-77z" />
    <glyph glyph-name="zero" unicode="0" horiz-adv-x="583" 
d="M535 337q0 -137 -52 -229q-64 -114 -191 -114q-124 0 -190 112q-53 90 -53 225q0 136 52 231q64 118 189 118q124 0 191 -115q54 -93 54 -228zM445 336q1 98 -28 169q-39 97 -124 97q-155 0 -155 -266q0 -103 28 -170q39 -95 127 -95q91 0 129 110q22 64 23 155z" />
    <glyph glyph-name="one" unicode="1" horiz-adv-x="583" 
d="M290 674h67v-674h-94v493h-145v62q78 1 114 22q45 26 58 97z" />
    <glyph glyph-name="two" unicode="2" horiz-adv-x="583" 
d="M196 77h324v-77h-441v86q95 49 214 161q126 119 126 225q0 61 -33.5 95.5t-93.5 34.5q-127 0 -127 -133q0 -34 12 -80h-88q-12 40 -12 80q0 99 58.5 155t158.5 56q95 0 156.5 -58.5t61.5 -153.5q0 -91 -66 -178q-38 -50 -110 -111q-48 -40 -140 -102z" />
    <glyph glyph-name="three" unicode="3" horiz-adv-x="583" 
d="M152 448l-89 5q5 53 5 55q4 27 15 53q50 119 202 119q94 0 155 -46q69 -51 69 -142q0 -92 -82 -142q102 -51 102 -161q0 -96 -72 -148q-64 -47 -163 -47q-116 0 -182 56q-69 59 -72 173h91q4 -80 40.5 -115t116.5 -35q147 0 147 121q0 114 -157 114q-27 0 -57 -3v82
q36 -2 50 -2q148 0 148 107q0 55 -41 86q-37 28 -94 28q-124 0 -132 -158z" />
    <glyph glyph-name="four" unicode="4" horiz-adv-x="583" 
d="M435 238h98v-76h-98v-162h-88v162h-305v80l323 432h70v-436zM133 238h214l4 301z" />
    <glyph glyph-name="five" unicode="5" horiz-adv-x="583" 
d="M72 307l22 367h384v-79h-317l-8 -178q61 55 150 55q100 0 161 -67.5t61 -169.5q0 -91 -54 -159q-65 -82 -184 -82q-102 0 -166 57.5t-74 158.5l89 6q8 -65 45.5 -105t101.5 -40q72 0 112 49q38 46 38 119q0 70 -39 112.5t-108 42.5q-98 0 -133 -87h-81z" />
    <glyph glyph-name="six" unicode="6" horiz-adv-x="583" 
d="M510 506l-88 -12q-18 110 -117 110q-142 0 -157 -241q64 82 167 82q94 0 153.5 -61.5t59.5 -155.5q0 -101 -62 -167.5t-162 -66.5q-130 0 -192 108q-50 87 -50 227q0 144 48 235q62 116 194 116q160 0 206 -174zM439 222q0 62 -37 102t-99 40q-63 0 -102 -40.5
t-39 -103.5t40 -104.5t103 -41.5q62 0 99 44q35 41 35 104z" />
    <glyph glyph-name="seven" unicode="7" horiz-adv-x="583" 
d="M96 466v208h413v-97q0 -25 -6 -39q-4 -10 -33 -60l-35 -61q-141 -246 -161 -417h-106q30 194 204 461l30 46q21 32 25 41q9 20 8 46h-267v-128h-72z" />
    <glyph glyph-name="eight" unicode="8" horiz-adv-x="583" 
d="M437 362q96 -58 96 -159t-72 -157q-66 -52 -169 -52q-102 0 -168 51q-72 55 -72 155q0 102 92 162q-75 49 -75 139q0 94 68 140q58 39 157 39q58 0 95 -11q125 -37 125 -167q0 -95 -77 -140zM424 502q-1 101 -135 101q-131 0 -131 -99q0 -107 134 -107q133 0 132 105z
M440 203q-1 61 -47 92q-40 27 -104 27q-63 0 -102 -28q-44 -32 -44 -93q0 -62 46 -95q41 -30 105 -30q63 0 103 31q44 34 43 96z" />
    <glyph glyph-name="nine" unicode="9" horiz-adv-x="583" 
d="M73 163l87 16q30 -109 120 -109q95 0 136 103q24 60 24 131q-66 -86 -168 -86q-98 0 -159 63t-61 162q0 104 61.5 169t165.5 65q246 0 246 -333q0 -149 -49 -237q-64 -113 -201 -113q-155 0 -202 169zM431 432q2 71 -38 119q-43 51 -113 51q-67 0 -105 -49
q-34 -44 -34 -113q0 -64 38 -103t102 -39q63 0 105.5 36t44.5 98z" />
    <glyph glyph-name="colon" unicode=":" 
d="M106 489h98v-112h-98v112zM106 113h98v-113h-98v113z" />
    <glyph glyph-name="semicolon" unicode=";" 
d="M107 490h99v-110h-99v110zM107 111h99v-61q0 -116 -38 -204h-46q25 78 25 154h-40v111z" />
    <glyph glyph-name="less" unicode="&#x3c;" horiz-adv-x="667" 
d="M667 83v-86l-667 313v86l667 313v-87l-567 -269z" />
    <glyph glyph-name="equal" unicode="=" horiz-adv-x="667" 
d="M667 240v-78h-667v78h667zM667 421v-79h-667v79h667z" />
    <glyph glyph-name="greater" unicode="&#x3e;" horiz-adv-x="667" 
d="M667 310l-667 -313v86l567 270l-567 269v87l667 -313v-86z" />
    <glyph glyph-name="question" unicode="?" horiz-adv-x="562" 
d="M336 302v-152h-79v236q91 0 128 20q58 32 58 101q0 61 -45 97q-41 33 -104 33q-141 0 -136 -166h-87q-3 129 79 193q61 48 145 48q97 0 163.5 -60t66.5 -156q0 -119 -97 -170q-34 -18 -92 -24zM252 97h88v-97h-88v97z" />
    <glyph glyph-name="at" unicode="@" horiz-adv-x="896" 
d="M787 76l32 -40q-163 -160 -365 -160q-148 0 -254 79q-131 98 -131 281q0 196 133.5 336t328.5 140q134 0 215 -78t81 -212q0 -125 -62 -229q-73 -123 -168 -123q-77 0 -84 85q-62 -84 -144 -84q-64 0 -99 50q-31 44 -31 110q0 100 54 187q62 99 157 99q78 0 115 -84
l15 62h68l-33 -150q-28 -127 -28 -173q0 -43 30 -43q64 0 112 119q40 99 40 173q0 112 -67 174t-180 62q-167 0 -284 -129q-113 -124 -113 -293q0 -155 109 -237q89 -67 217 -67q184 0 336 145zM541 347q1 41 -21 73.5t-62 32.5q-65 0 -106 -79q-34 -66 -34 -137
q0 -41 18 -69q21 -33 60 -33q66 0 108 76q35 64 37 136z" />
    <glyph glyph-name="A" unicode="A" horiz-adv-x="646" 
d="M535 0l-77 216h-269l-79 -216h-100l269 706h98l257 -706h-99zM219 295h211l-103 294z" />
    <glyph glyph-name="B" unicode="B" horiz-adv-x="688" 
d="M77 0v706h291q68 0 95 -5q70 -13 112 -58q44 -48 44 -118q0 -54 -28.5 -96t-79.5 -57q130 -39 130 -177q0 -106 -80 -158q-38 -25 -86 -32q-34 -5 -122 -5h-276zM385 623h-219v-214h147q93 0 123 6q84 17 84 105q0 103 -135 103zM339 329h-173v-246h209q61 0 87 6
q82 19 82 113q0 83 -68 113q-32 14 -137 14z" />
    <glyph glyph-name="C" unicode="C" horiz-adv-x="750" 
d="M639 268l103 -12q-28 -126 -123 -200t-225 -74q-163 0 -256 105q-89 101 -89 266q0 169 95.5 270t262.5 101q243 0 321 -216l-95 -20q-8 23 -15 38q-9 20 -27 41q-68 82 -185 82q-125 0 -192 -85q-61 -78 -61 -206q0 -129 60 -209q67 -89 192 -89q96 0 158 56t76 152z
" />
    <glyph glyph-name="D" unicode="D" horiz-adv-x="708" 
d="M78 0v706h221q96 0 142 -11q75 -18 129 -76q88 -94 88 -266q0 -186 -99 -278q-53 -49 -127 -66q-39 -9 -111 -9h-243zM285 623h-111v-542h125q105 0 156 29q107 60 107 242q0 214 -147 259q-39 12 -130 12z" />
    <glyph glyph-name="E" unicode="E" horiz-adv-x="604" 
d="M513 322h-344v-240h408v-82h-499v706h487v-83h-396v-218h344v-83z" />
    <glyph glyph-name="F" unicode="F" horiz-adv-x="542" 
d="M506 332h-334v-332h-94v707h453v-84h-359v-209h334v-82z" />
    <glyph glyph-name="G" unicode="G" horiz-adv-x="812" 
d="M413 373h328v-373h-81v99q-80 -117 -258 -117q-161 0 -256.5 100t-95.5 262q0 153 86 258q100 122 279 122q149 0 246 -90q46 -43 80 -114l-97 -26q-20 53 -49 83q-66 69 -177 69q-135 0 -207 -98q-58 -79 -58 -194q0 -127 66 -206q71 -84 195 -84q90 0 157 45
q91 61 89 185h-247v79z" />
    <glyph glyph-name="H" unicode="H" horiz-adv-x="729" 
d="M557 0v323h-384v-323h-94v707h94v-301h384v301h95v-707h-95z" />
    <glyph glyph-name="I" unicode="I" horiz-adv-x="229" 
d="M67 706h95v-706h-95v706z" />
    <glyph glyph-name="J" unicode="J" horiz-adv-x="375" 
d="M201 707h96v-519q0 -54 -5 -77q-9 -40 -36 -70q-53 -58 -152 -58q-42 0 -95 10v102q36 -20 83 -20q87 0 103 64q6 24 6 89v479z" />
    <glyph glyph-name="K" unicode="K" horiz-adv-x="625" 
d="M510 0l-249 347l-100 -101v-246h-94v706h94v-345l335 345h116l-286 -292l298 -414h-114z" />
    <glyph glyph-name="L" unicode="L" horiz-adv-x="521" 
d="M162 707v-623h342v-84h-436v707h94z" />
    <glyph glyph-name="M" unicode="M" horiz-adv-x="812" 
d="M624 706h121v-706h-93l13 592l-223 -592h-73l-219 583l10 -583h-92v706h121l217 -579z" />
    <glyph glyph-name="N" unicode="N" horiz-adv-x="708" 
d="M545 706h85v-706h-85l-387 574l8 -574h-88v706h88l383 -566z" />
    <glyph glyph-name="O" unicode="O" horiz-adv-x="812" 
d="M762 360q0 -169 -93 -272q-97 -106 -265 -106q-163 0 -259 105q-94 102 -94 266q0 166 96 268.5t260 102.5q162 0 258.5 -100.5t96.5 -263.5zM660 359q-1 127 -62 204q-67 85 -191 85q-127 0 -194 -87q-60 -78 -60 -209q0 -128 62 -208q68 -88 193 -88q128 0 194 91
q59 80 58 212z" />
    <glyph glyph-name="P" unicode="P" horiz-adv-x="625" 
d="M371 299h-204v-299h-91v706h305q76 0 112 -12q121 -40 121 -188q0 -67 -33 -120q-35 -57 -97 -76q-36 -11 -113 -11zM167 625v-243h197q49 0 70 4q43 8 66 44q21 32 21 78q0 117 -136 117h-218z" />
    <glyph glyph-name="Q" unicode="Q" horiz-adv-x="812" 
d="M747 -36l-113 95q-98 -77 -232 -77q-163 0 -260 105q-95 102 -95 266q0 167 97 269t263 102q167 0 262 -103q93 -99 93 -268q0 -127 -65 -225l109 -94zM661 352q-1 128 -63 209q-68 90 -193 90q-123 0 -192 -89q-64 -81 -64 -207q0 -128 63 -209q70 -88 195 -88
q124 0 192 87q63 80 62 207z" />
    <glyph glyph-name="R" unicode="R" horiz-adv-x="667" 
d="M352 300h-182v-300h-92v706h262q84 0 122 -6q51 -8 89 -37q74 -56 74 -163q0 -165 -167 -194l198 -306h-112zM170 628v-250h187q58 0 86 7q88 22 88 114q0 51 -27 85t-77 41q-21 3 -75 3h-182z" />
    <glyph glyph-name="S" unicode="S" horiz-adv-x="667" 
d="M382 314l-59 12q-111 23 -164 54q-88 52 -88 147q0 96 82 150q71 47 172 47q246 0 281 -218l-95 -6q-7 151 -183 151q-63 0 -106 -24q-54 -29 -54 -87q0 -50 47 -78q25 -15 92 -32l78 -20q42 -11 111 -31q122 -51 122 -176q0 -111 -89 -170q-76 -51 -193 -51
q-97 0 -167 34q-122 59 -132 209l101 13q3 -90 57 -136.5t145 -46.5q73 0 121 33q55 38 55 108q0 55 -42 84q-30 21 -92 34z" />
    <glyph glyph-name="T" unicode="T" horiz-adv-x="542" 
d="M528 624h-211v-624h-95v624h-212v83h518v-83z" />
    <glyph glyph-name="U" unicode="U" horiz-adv-x="688" 
d="M516 707h95v-451q0 -54 -9 -92q-21 -89 -98 -137q-70 -44 -166 -44q-144 0 -217 94q-32 41 -41 89q-5 26 -5 103v438h95v-425q0 -65 4 -90q10 -63 54 -96.5t110 -33.5q138 0 169 117q9 34 9 105v423z" />
    <glyph glyph-name="V" unicode="V" horiz-adv-x="604" 
d="M298 116l194 590h100l-249 -706h-94l-238 706h100z" />
    <glyph glyph-name="W" unicode="W" horiz-adv-x="1021" 
d="M741 121l165 585h97l-216 -706h-92l-186 585l-180 -585h-94l-217 706h99l167 -585l179 585h92z" />
    <glyph glyph-name="X" unicode="X" horiz-adv-x="625" 
d="M579 706l-215 -336l241 -370h-111l-183 287l-181 -287h-109l235 370l-222 336h112l165 -254l157 254h111z" />
    <glyph glyph-name="Y" unicode="Y" horiz-adv-x="625" 
d="M611 706l-254 -383v-323h-95v323l-249 383h112l185 -299l189 299h112z" />
    <glyph glyph-name="Z" unicode="Z" horiz-adv-x="604" 
d="M53 706h508v-88l-434 -533h444v-85h-553v92l436 527h-401v87z" />
    <glyph glyph-name="bracketleft" unicode="[" horiz-adv-x="313" 
d="M302 683h-104v-734h104v-60h-188v856h188v-62z" />
    <glyph glyph-name="backslash" unicode="\" horiz-adv-x="333" 
d="M90 702l231 -702h-75l-233 702h77z" />
    <glyph glyph-name="bracketright" unicode="]" horiz-adv-x="313" 
d="M11 -49h104v734h-104v60h188v-856h-188v62z" />
    <glyph glyph-name="asciicircum" unicode="^" horiz-adv-x="667" 
d="M376 706l180 -369h-97l-124 259l-128 -259h-96l188 369h77z" />
    <glyph glyph-name="underscore" unicode="_" horiz-adv-x="500" 
d="M510 -75v-50h-520v50h520z" />
    <glyph glyph-name="grave" unicode="`" 
d="M71 665h88l41 -144h-47z" />
    <glyph glyph-name="a" unicode="a" horiz-adv-x="500" 
d="M271 276l75 6v12q0 58 -13 84q-23 47 -93 47q-101 0 -101 -99l-84 5q11 90 68 126q46 29 114 29q157 0 183 -112q6 -26 6 -87v-153q0 -34 3 -44q6 -24 31 -24q14 0 26 5v-69q-35 -8 -50 -8q-72 0 -82 70q-74 -77 -162 -77q-65 0 -110 34q-50 38 -50 101q0 135 239 154z
M347 231q-52 -7 -124 -22q-103 -21 -103 -85q0 -35 28 -54q24 -16 61 -16q92 0 125 71q13 28 13 106z" />
    <glyph glyph-name="b" unicode="b" horiz-adv-x="562" 
d="M65 707h80v-300q62 79 162 79q105 0 163 -75q54 -69 54 -176q0 -108 -54 -175q-59 -74 -164 -74t-161 75v-61h-80v707zM143 235q0 -78 35 -127q39 -55 114 -55q74 0 113 58q34 50 34 128q0 75 -35 122q-38 52 -111 52q-75 0 -114 -53q-36 -48 -36 -125z" />
    <glyph glyph-name="c" unicode="c" horiz-adv-x="521" 
d="M408 178l86 -8q-7 -43 -27 -80q-56 -104 -193 -104q-110 0 -172.5 67t-62.5 178q0 112 57 181q61 74 171 74q180 0 218 -158l-88 -8q-17 108 -127 108q-76 0 -113 -61q-30 -49 -30 -130q0 -80 33 -130q39 -60 115 -60q115 0 133 131z" />
    <glyph glyph-name="d" unicode="d" horiz-adv-x="562" 
d="M417 707h80v-707h-80v61q-62 -75 -162 -75q-107 0 -164 75q-52 67 -52 177q0 106 53 174q59 74 162 74q104 0 163 -77v298zM274 414q-74 1 -114 -54q-36 -49 -36 -125q0 -77 34 -124q39 -54 113 -54q75 0 114 55q34 48 34 126q0 73 -35 121q-39 54 -110 55z" />
    <glyph glyph-name="e" unicode="e" horiz-adv-x="521" 
d="M402 156l81 -11q-55 -159 -213 -159q-111 0 -173 73q-58 68 -58 181q0 105 62 175.5t166 70.5q79 0 134 -45t73 -122q9 -39 9 -96h-358q-2 -75 37 -124q42 -53 115 -53q101 0 125 110zM127 280h269q-4 64 -37 103q-37 42 -98 42q-59 0 -95 -44q-33 -40 -39 -101z" />
    <glyph glyph-name="f" unicode="f" 
d="M167 553v-82h89v-66h-89v-405h-77v405h-79v66h79l1 96q1 134 122 134q13 0 58 -6v-62q-30 4 -44 4q-39 0 -52 -28q-8 -17 -8 -56z" />
    <glyph glyph-name="g" unicode="g" horiz-adv-x="562" 
d="M414 471h83v-445q0 -114 -29 -164q-53 -91 -189 -91q-192 0 -216 176h90q-1 -56 38 -85q35 -26 93 -26q111 0 126 88q4 23 4 90v55q-59 -83 -155 -83q-103 0 -163 73q-55 69 -55 174q0 108 54 177q59 76 165 76q88 0 154 -78v63zM267 414q-71 -1 -110 -56
q-34 -48 -34 -122q0 -77 35 -125q39 -54 114 -54q76 0 114 58q32 48 32 128q0 104 -63 146q-38 25 -88 25z" />
    <glyph glyph-name="h" unicode="h" horiz-adv-x="521" 
d="M66 0v707h81v-283q58 62 143 62q128 0 159 -104q9 -30 9 -108v-274h-81v249q0 99 -19 127q-27 40 -83 40q-47 0 -79.5 -27t-42.5 -74q-6 -28 -6 -86v-229h-81z" />
    <glyph glyph-name="i" unicode="i" horiz-adv-x="208" 
d="M69 706h77v-92h-77v92zM69 471h77v-471h-77v471z" />
    <glyph glyph-name="j" unicode="j" horiz-adv-x="208" 
d="M65 706h78v-93h-78v93zM65 470h78v-574q0 -64 -24 -93q-27 -32 -89 -32q-20 0 -53 3v72q21 -3 36 -3q36 0 46 21q6 12 6 53v553z" />
    <glyph glyph-name="k" unicode="k" horiz-adv-x="458" 
d="M432 471l-175 -186l215 -285h-100l-169 226l-57 -60v-166h-81v706h81v-435l188 200h98z" />
    <glyph glyph-name="l" unicode="l" horiz-adv-x="208" 
d="M66 706h77v-706h-77v706z" />
    <glyph glyph-name="m" unicode="m" horiz-adv-x="771" 
d="M61 471h78v-63q66 78 141 78q50 0 85 -30q20 -17 43 -57q42 42 68 59q43 28 89 28q41 0 77 -22.5t52 -59.5q13 -30 13 -108v-295h-78v276q0 60 -4 75q-16 59 -82 59q-54 0 -92 -40q-19 -20 -24 -42q-4 -17 -4 -64v-264h-78v303q0 107 -87 107q-49 0 -88 -35
q-21 -19 -27 -43q-4 -16 -4 -53v-280h-78v471z" />
    <glyph glyph-name="n" unicode="n" horiz-adv-x="521" 
d="M65 471h80v-69q48 84 147 84q55 0 97.5 -28.5t57.5 -79.5q8 -27 8 -97v-281h-79v268q0 62 -5 78q-20 65 -101 65q-62 0 -95 -41q-30 -37 -30 -101v-269h-80v471z" />
    <glyph glyph-name="o" unicode="o" horiz-adv-x="542" 
d="M502 236q-1 -110 -60 -178q-62 -72 -170 -72t-171 70q-61 67 -61 176q0 97 49 166q63 88 186 88q107 0 169 -73q59 -68 58 -177zM415 236q2 79 -27 128q-36 58 -111 58q-78 0 -117 -59q-33 -50 -33 -132q0 -79 32 -126q37 -55 112 -55q139 0 144 186z" />
    <glyph glyph-name="p" unicode="p" horiz-adv-x="562" 
d="M64 -223v694h79v-67q13 15 44 43q56 39 124 39q99 0 158 -78q54 -71 54 -173q0 -109 -55 -176q-59 -73 -166 -73q-102 0 -159 70v-279h-79zM288 411q-73 -3 -111 -58q-34 -49 -34 -125q0 -75 35 -121q39 -51 112 -51q51 0 83 21q68 44 68 159q0 77 -37 125
q-41 53 -116 50z" />
    <glyph glyph-name="q" unicode="q" horiz-adv-x="562" 
d="M416 471h81v-695h-81v281q-55 -71 -163 -71q-104 0 -161 71q-53 65 -53 172q0 110 52 179q58 78 164 78q105 0 161 -85v70zM274 412q-36 1 -67 -14q-80 -38 -80 -164q0 -184 146 -184q75 0 114 50q35 44 35 120q0 79 -34 131q-39 60 -114 61z" />
    <glyph glyph-name="r" unicode="r" horiz-adv-x="313" 
d="M65 471h80v-86q45 88 162 92v-86q-20 2 -33 2q-75 0 -109 -56q-20 -33 -20 -119v-218h-80v471z" />
    <glyph glyph-name="s" unicode="s" horiz-adv-x="479" 
d="M265 199l-45 9q-79 16 -113 37q-56 35 -56 100q0 71 58 108q49 32 124 32q80 0 133 -37q58 -40 69 -117l-86 -11q-4 104 -125 104q-36 0 -62 -16q-31 -19 -31 -53q0 -30 33 -48q21 -12 80 -26l45 -11q68 -17 99 -36q58 -36 58 -100q0 -73 -65 -114q-55 -35 -133 -35
q-196 0 -216 166l90 14q-6 -119 130 -119q111 0 111 78q0 36 -28 53q-20 12 -70 22z" />
    <glyph glyph-name="t" unicode="t" horiz-adv-x="292" 
d="M174 620v-149h86v-66h-86v-270q0 -48 4 -61q6 -19 30 -19q17 0 52 11v-66q-56 -8 -77 -8q-62 0 -80 30q-11 19 -11 77v306h-75v66h75v149h82z" />
    <glyph glyph-name="u" unicode="u" horiz-adv-x="521" 
d="M65 195v276h79v-269q0 -50 2 -65q10 -74 94 -74q51 0 86.5 25.5t44.5 74.5q4 21 4 72v236h79v-471h-79v72q-63 -84 -161 -84q-56 0 -95.5 29.5t-49.5 83.5q-4 22 -4 94z" />
    <glyph glyph-name="v" unicode="v" horiz-adv-x="437" 
d="M220 110l124 361h82l-170 -471h-72l-172 471h83z" />
    <glyph glyph-name="w" unicode="w" horiz-adv-x="729" 
d="M331 471h69l112 -350l123 350h84l-173 -471h-70l-113 351l-115 -351h-73l-164 471h86l118 -350z" />
    <glyph glyph-name="x" unicode="x" horiz-adv-x="396" 
d="M202 309l95 162h90l-142 -232l142 -239h-90l-100 168l-98 -168h-91l147 239l-139 232h92z" />
    <glyph glyph-name="y" unicode="y" horiz-adv-x="437" 
d="M342 471h83l-198 -557q-29 -82 -52 -109q-32 -38 -93 -38q-36 0 -73 11v71q29 -8 51 -8q40 0 60 25q14 18 34 74l20 57l-160 474h85l118 -374z" />
    <glyph glyph-name="z" unicode="z" horiz-adv-x="417" 
d="M38 471h345v-64l-273 -341h279v-66h-376v66l271 336h-246v69z" />
    <glyph glyph-name="braceleft" unicode="{" horiz-adv-x="354" 
d="M68 300v40q25 8 33 13q26 18 34 69q4 27 4 79v55q0 70 6 100q16 80 89 100q22 6 91 9v-40q-30 -8 -43 -15q-39 -20 -51 -66q-6 -25 -6 -87v-10q0 -57 -1 -91q-2 -58 -17 -87q-19 -33 -69 -50q49 -19 68 -50q17 -27 19 -83q1 -29 1 -84v-22q0 -80 15 -110q19 -38 84 -56
v-40q-56 2 -87 9q-79 18 -94 106q-4 24 -4 80v58q0 90 -11 117q-15 37 -61 56z" />
    <glyph glyph-name="bar" unicode="|" horiz-adv-x="229" 
d="M154 750v-1000h-80v1000h80z" />
    <glyph glyph-name="braceright" unicode="}" horiz-adv-x="354" 
d="M286 339v-40q-23 -7 -33 -13q-26 -20 -34 -69q-4 -26 -4 -79v-55q0 -70 -6 -100q-16 -80 -89 -100q-22 -6 -91 -9v40q30 8 43 15q39 20 51 66q6 25 6 87v10q0 57 1 91q2 58 17 87q19 33 69 50q-49 19 -68 50q-17 27 -19 83q-1 29 -1 84v22q0 80 -15 110q-19 38 -84 56v40
q56 -2 87 -9q79 -18 94 -106q4 -24 4 -80v-58q0 -90 11 -117q15 -37 61 -56z" />
    <glyph glyph-name="asciitilde" unicode="~" horiz-adv-x="667" 
d="M536 366v0l38 -71q-62 -80 -137 -80q-34 0 -101 32q-80 38 -108 38q-27 0 -46 -15q-14 -11 -49 -52l-40 71q56 84 133 84q38 0 111 -33l33 -15q46 -21 70 -21q49 0 96 62z" />
    <glyph glyph-name="dagger" unicode="&#x2020;" horiz-adv-x="458" 
d="M191 706h80v-206h170v-80h-170v-420h-80v420h-171v80h171v206z" />
    <glyph glyph-name="cent" unicode="&#xa2;" horiz-adv-x="500" 
d="M231 481v97h60v-97q140 -16 182 -157l-89 -9q-9 79 -93 102v-364q95 17 105 127l87 -8q-4 -16 -11 -39q-42 -130 -182 -145v-103h-59v103q-76 13 -122 53q-81 71 -81 197q0 130 89 198q44 34 114 45zM231 54v364q-118 -31 -118 -180q0 -154 118 -184z" />
    <glyph glyph-name="sterling" unicode="&#xa3;" horiz-adv-x="667" 
d="M501 282h-174q21 -65 21 -93q0 -37 -11 -77q67 -41 124 -41q94 0 98 108l94 -7q-7 -62 -36 -110q-45 -74 -132 -74q-66 0 -133 31l-52 24q-22 -17 -39 -28q-47 -30 -102 -30q-45 0 -77 23q-36 26 -36 69q0 42 34 66q31 22 74 22q45 0 102 -18q1 7 1 16q0 54 -44 119h-177
v65h131q-61 102 -61 167q0 99 84 158q75 52 178 52q106 0 174.5 -60t72.5 -164l-104 -11l1 18q4 66 -41 107q-42 38 -109 38q-63 0 -103 -32q-45 -35 -45 -96q0 -58 42 -123l35 -54h210v-65zM227 78q-51 17 -69 17q-33 0 -33 -25q0 -24 32 -24q36 0 70 32z" />
    <glyph glyph-name="section" unicode="&#xa7;" horiz-adv-x="625" 
d="M541 697l-41 -70q-117 71 -205 71q-42 0 -73 -15q-41 -19 -41 -56q0 -30 28 -49q16 -11 56 -26l74 -28q120 -45 166 -78q84 -59 84 -150q0 -47 -26 -89.5t-68 -66.5q50 -42 50 -101q0 -75 -67 -120q-60 -41 -138 -41q-107 0 -261 80l39 75q115 -76 225 -76q40 0 68 15
q35 19 35 56q0 33 -29 53q-14 9 -63 31l-64 28q-131 57 -175 90q-78 58 -78 140q0 86 94 154q-41 43 -41 88q0 76 68 120q59 39 139 39q96 0 244 -74zM275 456l-64 25q-33 -12 -58 -40t-25 -61q0 -45 49 -80q35 -25 152 -78l86 -39q36 12 61.5 40.5t25.5 63.5q0 73 -137 131
z" />
    <glyph glyph-name="bullet" unicode="&#x2022;" horiz-adv-x="333" 
d="M37 353q0 54 38 92t92 38t92 -38t38 -92t-38 -92t-92 -38t-92 38t-38 92z" />
    <glyph glyph-name="paragraph" unicode="&#xb6;" horiz-adv-x="667" 
d="M309 706h230v-54h-34v-818h-58v818h-145v-818h-57v485q-75 12 -116.5 61.5t-41.5 125.5q0 62 30 110q56 90 192 90z" />
    <glyph glyph-name="germandbls" unicode="&#xdf;" horiz-adv-x="542" 
d="M192 5v83q56 -21 98 -21q132 0 132 156q0 91 -65 132q-44 28 -157 28v79q21 -2 40 -2q54 0 89 23q41 26 41 77q0 44 -33 69q-29 22 -75 22q-99 0 -115 -82q-4 -21 -4 -77v-492h-79v496q0 68 8 102q30 126 188 126q83 0 133 -38q57 -43 57 -123q0 -102 -90 -138
q73 -10 110 -66q33 -50 33 -127q0 -243 -216 -243q-47 0 -95 16z" />
    <glyph glyph-name="acute" unicode="&#xb4;" 
d="M113 666h86l-86 -144h-41z" />
    <glyph glyph-name="dieresis" unicode="&#xa8;" 
d="M-7 644h87v-103h-87v103zM190 644h88v-103h-88v103z" />
    <glyph glyph-name="AE" unicode="&#xc6;" horiz-adv-x="1042" 
d="M607 312v-230h407v-82h-501v233h-252l-153 -233h-111l483 706h521v-84h-394v-230h318v-80h-318zM316 313h197v301z" />
    <glyph glyph-name="Oslash" unicode="&#xd8;" horiz-adv-x="812" 
d="M647 634l68 65l48 -51l-71 -67q71 -106 71 -226q0 -144 -87 -250q-101 -123 -276 -123q-80 0 -142 27q-44 19 -97 61l-65 -62l-49 51l69 66q-66 107 -66 228q0 146 84 250q97 121 270 121q132 0 243 -90zM186 192l395 379q-74 78 -179 78q-123 0 -190 -91
q-58 -81 -58 -209q0 -81 32 -157zM621 512l-397 -381q77 -75 182 -75q119 0 188 84q65 78 65 200q0 93 -38 172z" />
    <glyph glyph-name="yen" unicode="&#xa5;" horiz-adv-x="625" 
d="M311 390l189 287h111l-171 -247h112v-72h-159l-38 -52h197v-72h-195v-234h-94v234h-194v71h195l-33 52h-162v71h114l-169 249h112z" />
    <glyph glyph-name="ordfeminine" unicode="&#xaa;" horiz-adv-x="313" 
d="M262 619v-114q0 -35 22 -35q8 0 15 5v-46q-18 -6 -30 -6q-38 0 -54 37q-41 -41 -94 -41q-39 0 -65 20.5t-26 58.5q0 56 60 79q37 14 122 19q1 38 -6 54q-12 27 -50 27q-61 0 -58 -59l-55 3q11 96 112 96q107 0 107 -98zM212 560q-57 -8 -75 -13q-49 -14 -49 -46
q0 -40 48 -40q41 0 63 30q15 20 13 69z" />
    <glyph glyph-name="ordmasculine" unicode="&#xba;" horiz-adv-x="333" 
d="M27 561q-1 68 36.5 111.5t104.5 43.5q64 0 103 -44q36 -42 36 -107t-38 -106.5t-102 -41.5q-63 0 -101 40t-39 104zM83 565q0 -104 85 -104q82 0 82 106q0 44 -20 72q-23 32 -65 32q-82 0 -82 -106z" />
    <glyph glyph-name="ae" unicode="&#xe6;" horiz-adv-x="812" 
d="M688 150l83 -13q-19 -72 -76 -111.5t-133 -39.5q-120 0 -176 99q-77 -99 -192 -99q-66 0 -111 32q-51 36 -51 100q0 79 77 123q38 22 91 27q41 4 158 4q0 153 -117 153q-43 0 -70.5 -26t-29.5 -69l-85 6q9 74 60 113q48 37 124 37q71 0 118 -36q20 -15 41 -47
q66 83 162 83q107 0 166 -86q50 -73 53 -186h-343q0 -44 13 -78q33 -86 123 -86q91 0 115 100zM436 272h259q-4 60 -38 102q-37 46 -95 46q-57 0 -92 -47q-32 -42 -34 -101zM357 214h-46q-56 0 -89 -6q-106 -19 -106 -86q0 -36 30 -56q26 -17 64 -17q69 0 109 49
q37 45 38 116z" />
    <glyph glyph-name="oslash" unicode="&#xf8;" horiz-adv-x="542" 
d="M427 425l44 44l35 -37l-46 -45q43 -61 43 -151q0 -109 -62 -178q-64 -72 -171 -72q-97 0 -157 64l-40 -40l-35 36l43 41q-40 73 -40 144q0 108 61 179q64 76 170 76q85 0 155 -61zM142 148l231 224q-50 50 -104 50q-68 0 -108 -57q-36 -51 -36 -122q0 -51 17 -95z
M401 329l-233 -225q45 -54 108 -54q70 0 110 57q35 50 35 123q0 56 -20 99z" />
    <glyph glyph-name="questiondown" unicode="&#xbf;" horiz-adv-x="562" 
d="M226 404v152h79v-237q-186 11 -186 -119q0 -60 46 -97q42 -34 104 -34q100 0 127 84q10 31 8 79h87q3 -105 -57.5 -171.5t-165.5 -66.5q-96 0 -162 60q-69 61 -69 156q0 59 32 109q48 75 157 85zM311 609h-89v97h89v-97z" />
    <glyph glyph-name="exclamdown" unicode="&#xa1;" 
d="M156 277v-277h-79v288l24 271h31zM156 706v-90h-79v90h79z" />
    <glyph glyph-name="florin" unicode="&#x192;" horiz-adv-x="437" 
d="M334 575l-25 -104h85l-15 -62h-84l-125 -523q-27 -115 -114 -115q-27 0 -60 12l15 58q16 -7 31 -7q30 0 44 28q5 10 16 56l115 491h-72l15 62h72l34 132q15 59 33 80q26 31 82 31q25 0 56 -10l-14 -60q-17 5 -36 5q-26 0 -39 -25q-4 -8 -14 -49z" />
    <glyph glyph-name="guillemotleft" unicode="&#xab;" horiz-adv-x="396" 
d="M334 227v-90l-135 113v85l135 117v-90l-78 -67zM177 227v-90l-135 113v85l135 117v-90l-78 -67z" />
    <glyph glyph-name="guillemotright" unicode="&#xbb;" horiz-adv-x="396" 
d="M62 362v90l135 -113v-85l-135 -117v90l78 67zM219 362v90l135 -113v-85l-135 -117v90l78 67z" />
    <glyph glyph-name="ellipsis" unicode="&#x2026;" horiz-adv-x="1000" 
d="M784 113h99v-113h-99v113zM451 113h99v-113h-99v113zM118 113h99v-113h-99v113z" />
    <glyph glyph-name="OE" unicode="&#x152;" horiz-adv-x="1146" 
d="M708 320v-238h411v-82h-501v81q-96 -99 -232 -99q-155 0 -248 111q-88 104 -88 262q0 163 90 264q95 105 256 105q137 0 222 -92v74h490v-85h-400v-219h322v-82h-322zM617 355q0 84 -14 132q-22 76 -78 120t-134 44q-119 0 -184 -93q-58 -82 -58 -205q0 -120 58 -201
q65 -92 180 -92q80 0 138 46q92 73 92 249z" />
    <glyph glyph-name="oe" unicode="&#x153;" horiz-adv-x="875" 
d="M751 152l81 -11q-25 -72 -80 -113.5t-130 -41.5q-121 0 -180 94q-61 -94 -174 -94q-107 0 -168 72q-58 68 -58 177t60 178q63 73 170 73q105 0 170 -87q62 87 172 87q113 0 171 -83q50 -71 54 -189h-356q0 -69 38 -115q40 -49 108 -49q92 0 122 102zM484 274h267
q-7 62 -39 102q-36 46 -95 46q-58 0 -95 -46q-33 -41 -38 -102zM403 233q0 76 -30 126q-36 61 -107 61t-108 -61q-31 -51 -31 -126q0 -73 32 -122q37 -58 106 -58q71 0 107 57q31 48 31 123z" />
    <glyph glyph-name="endash" unicode="&#x2013;" horiz-adv-x="583" 
d="M541 334v-79h-496v79h496z" />
    <glyph glyph-name="emdash" unicode="&#x2014;" horiz-adv-x="625" 
d="M582 334v-79h-537v79h537z" />
    <glyph glyph-name="quotedblleft" unicode="&#x201c;" horiz-adv-x="375" 
d="M311 440h-99v51q0 107 42 215h46q-29 -76 -32 -157h43v-109zM162 440h-99v51q0 106 42 215h47q-28 -70 -33 -157h43v-109z" />
    <glyph glyph-name="quotedblright" unicode="&#x201d;" horiz-adv-x="375" 
d="M63 706h99v-52q0 -105 -41 -214h-47q28 67 33 156h-44v110zM212 706h99v-52q0 -68 -9 -112q-7 -36 -33 -102h-46q12 35 17 54q12 48 15 102h-43v110z" />
    <glyph glyph-name="quoteleft" unicode="&#x2018;" horiz-adv-x="229" 
d="M162 440h-99v51q0 106 42 215h47q-28 -75 -33 -157h43v-109z" />
    <glyph glyph-name="quoteright" unicode="&#x2019;" horiz-adv-x="229" 
d="M63 706h99v-52q0 -69 -10 -117q-7 -35 -31 -97h-47q28 67 33 156h-44v110z" />
    <glyph glyph-name="fraction" unicode="&#x2044;" horiz-adv-x="125" 
d="M246 717l34 -19l-402 -708l-33 19z" />
    <glyph glyph-name="currency" unicode="&#xa4;" horiz-adv-x="750" 
d="M709 581l-29 -61q-83 102 -230 102q-90 0 -160.5 -52t-95.5 -138h445l-30 -63h-429q-2 -26 -2 -33q0 -8 2 -30h400l-30 -63h-356q27 -91 100 -142q70 -50 166 -50q138 0 220 99v-85q-96 -77 -225 -77q-122 0 -212 68q-93 69 -120 187h-113l30 63h71q-1 13 -1 31
q0 19 1 32h-101l30 63h83q27 118 122 187q91 66 215 66q70 0 136 -26q72 -28 113 -78z" />
    <glyph glyph-name="guilsinglleft" unicode="&#x2039;" horiz-adv-x="250" 
d="M182 227v-90l-135 113v85l135 117v-90l-78 -67z" />
    <glyph glyph-name="guilsinglright" unicode="&#x203a;" horiz-adv-x="250" 
d="M68 362v90l135 -113v-85l-135 -117v90l78 67z" />
    <glyph glyph-name="fi" unicode="&#xf001;" horiz-adv-x="479" 
d="M167 553v-82h90v-66h-90v-405h-77v405h-79v66h79l1 97q1 134 122 134q16 0 58 -6v-62q-28 4 -43 4q-40 0 -53 -28q-8 -17 -8 -57zM340 707h77v-92h-77v92zM340 471h77v-471h-77v471z" />
    <glyph glyph-name="fl" unicode="&#xf002;" horiz-adv-x="479" 
d="M166 553v-82h90v-66h-90v-405h-77v405h-79v66h79l1 97q1 134 122 134q16 0 58 -6v-62q-28 4 -43 4q-40 0 -53 -28q-8 -17 -8 -57zM337 706h77v-706h-77v706z" />
    <glyph glyph-name="daggerdbl" unicode="&#x2021;" horiz-adv-x="458" 
d="M191 706h80v-206h170v-80h-170v-159h170v-80h-170v-181h-80v181h-172v80h172v159h-171v80h171v206z" />
    <glyph glyph-name="periodcentered" unicode="&#xb7;" horiz-adv-x="229" 
d="M64 352h99v-112h-99v112z" />
    <glyph glyph-name="periodcentered" unicode="&#x2219;" horiz-adv-x="229" 
d="M64 352h99v-112h-99v112z" />
    <glyph glyph-name="quotesinglbase" unicode="&#x201a;" horiz-adv-x="229" 
d="M63 109h99v-51q0 -105 -41 -214h-47q28 73 33 156h-44v109z" />
    <glyph glyph-name="quotedblbase" unicode="&#x201e;" horiz-adv-x="375" 
d="M63 109h99v-51q0 -105 -41 -214h-47q28 73 33 156h-44v109zM212 109h99v-51q0 -68 -9 -112q-7 -36 -33 -102h-46q28 73 32 156h-43v109z" />
    <glyph glyph-name="perthousand" unicode="&#x2030;" horiz-adv-x="1250" 
d="M849 213q-1 -91 -35 -149q-42 -73 -127 -73q-52 0 -92 31q-72 56 -72 196q0 141 75 201q39 31 87 31q55 0 95 -37q37 -34 55 -89q15 -45 14 -111zM784 213q0 178 -99 178q-72 0 -90 -97q-7 -38 -7 -74q0 -172 100 -172q54 0 78 59q18 43 18 106zM565 681l55 -26
l-317 -683l-55 25zM353 450q-1 -135 -70 -193q-39 -33 -93 -33q-83 0 -127 76q-37 62 -37 151q0 88 36 153q44 79 126 79q85 0 129 -78q37 -64 36 -155zM288 450q0 176 -99 176q-98 0 -98 -170q0 -174 99 -174q98 0 98 168zM1064 450q84 0 127 -76q36 -62 36 -152
q0 -94 -35 -155q-43 -76 -130 -76q-82 0 -126 73q-37 61 -37 149q0 41 9 83q14 67 51 107q42 47 105 47zM965 221q0 -172 99 -172q96 0 96 171q0 172 -98 172q-54 0 -79 -63q-18 -44 -18 -108z" />
    <glyph glyph-name="dotlessi" unicode="&#x131;" horiz-adv-x="208" 
d="M67 471h77v-471h-77v471z" />
    <glyph glyph-name="circumflex" unicode="&#x2c6;" 
d="M73 523h-70l94 151h67l104 -151h-75l-61 95z" />
    <glyph glyph-name="tilde" unicode="&#x2dc;" 
d="M234 635v0h48q-14 -100 -82 -100q-23 0 -66 16q-51 19 -62 19q-25 0 -33 -31h-49q14 99 87 99q20 0 73 -20q37 -14 53 -14q25 0 31 31z" />
    <glyph glyph-name="macron" unicode="&#xaf;" 
d="M-6 541v68h284v-68h-284z" />
    <glyph glyph-name="macron" unicode="&#x2c9;" 
d="M-6 541v68h284v-68h-284z" />
    <glyph glyph-name="breve" unicode="&#x2d8;" 
d="M210 655h52q-3 -53 -39 -91.5t-88 -38.5q-55 0 -89 36.5t-37 92.5h50q20 -63 78 -63q26 0 49.5 19.5t23.5 44.5z" />
    <glyph glyph-name="dotaccent" unicode="&#x2d9;" 
d="M92 541v99h87v-99h-87z" />
    <glyph glyph-name="ring" unicode="&#x2da;" 
d="M41 608q0 39 27.5 66.5t66.5 27.5t66.5 -27.5t27.5 -66.5t-27.5 -66.5t-66.5 -27.5t-66.5 27.5t-27.5 66.5zM84 609q0 -21 15 -36t36 -15t36 15t15 36t-15 36t-36 15t-36 -15t-15 -36z" />
    <glyph glyph-name="cedilla" unicode="&#xb8;" 
d="M140 16l30 -8l-30 -52l26 -13q36 -18 36 -60q0 -75 -126 -86v22q52 -3 52 36q0 27 -31 38l-29 10z" />
    <glyph glyph-name="hungarumlaut" unicode="&#x2dd;" 
d="M-1 521l46 144h88l-88 -144h-46zM140 521l43 144h89l-87 -144h-45z" />
    <glyph glyph-name="ogonek" unicode="&#x2db;" 
d="M131 6l73 -1q-63 -47 -63 -79q0 -41 73 -38v-75h-15q-66 0 -96 11q-46 17 -46 65q0 30 19 57q14 20 55 60z" />
    <glyph glyph-name="caron" unicode="&#x2c7;" 
d="M197 673h71l-96 -151h-67l-102 151h74l61 -96z" />
    <glyph glyph-name="Lslash" unicode="&#x141;" horiz-adv-x="521" 
d="M162 323v-239h342v-84h-436v234l-63 -60v79l63 60v394h94v-307l153 141v-78z" />
    <glyph glyph-name="lslash" unicode="&#x142;" horiz-adv-x="208" 
d="M66 706h77v-238l54 49v-70l-54 -50v-397h-77v326l-55 -48v67l55 50v311z" />
    <glyph glyph-name="Eth" unicode="&#xd0;" horiz-adv-x="708" 
d="M78 400v306h221q96 0 142 -11q75 -18 129 -76q88 -94 88 -266q0 -186 -99 -278q-53 -49 -127 -66q-39 -9 -111 -9h-243v341h-66v59h66zM285 623h-111v-223h169v-59h-169v-260h125q93 0 138 19q125 53 125 252q0 214 -147 259q-39 12 -130 12z" />
    <glyph glyph-name="eth" unicode="&#xf0;" horiz-adv-x="542" 
d="M480 617l-74 -24q97 -155 97 -335q0 -120 -55 -192q-61 -80 -177 -80q-134 0 -192 96q-39 64 -39 153q0 110 60.5 180.5t168.5 70.5q75 0 117 -42q17 -17 17 -13q-15 51 -19 59q-9 28 -43 82l-177 -57l-19 44l166 55q-31 37 -72 75l62 29q25 -21 75 -82l86 28zM416 236
q2 79 -27 128q-36 58 -111 58q-150 0 -150 -191q0 -79 32 -126q37 -55 112 -55q139 0 144 186z" />
    <glyph glyph-name="Scaron" unicode="&#x160;" horiz-adv-x="667" 
d="M382 314l-59 12q-111 23 -164 54q-88 52 -88 147q0 96 82 150q71 47 172 47q246 0 281 -218l-95 -6q-7 151 -183 151q-63 0 -106 -24q-54 -29 -54 -87q0 -50 47 -78q25 -15 92 -32l78 -20q42 -11 111 -31q122 -51 122 -176q0 -111 -89 -170q-76 -51 -193 -51
q-97 0 -167 34q-122 59 -132 209l101 13q3 -90 57 -136.5t145 -46.5q73 0 121 33q55 38 55 108q0 55 -42 84q-30 21 -92 34zM393 895h74l-100 -124h-66l-105 124h76l62 -76z" />
    <glyph glyph-name="scaron" unicode="&#x161;" horiz-adv-x="479" 
d="M265 199l-45 9q-79 16 -113 37q-56 35 -56 100q0 71 58 108q49 32 124 32q80 0 133 -37q58 -40 69 -117l-86 -11q-4 104 -125 104q-36 0 -62 -16q-31 -19 -31 -53q0 -30 33 -48q21 -12 80 -26l45 -11q68 -17 99 -36q58 -36 58 -100q0 -73 -65 -114q-55 -35 -133 -35
q-196 0 -216 166l90 14q-6 -119 130 -119q111 0 111 78q0 36 -28 53q-20 12 -70 22zM295 673h71l-96 -151h-67l-102 151h74l61 -96z" />
    <glyph glyph-name="Yacute" unicode="&#xdd;" horiz-adv-x="625" 
d="M611 706l-254 -383v-323h-95v323l-249 383h112l185 -299l189 299h112zM318 895h99l-87 -124h-60z" />
    <glyph glyph-name="yacute" unicode="&#xfd;" horiz-adv-x="437" 
d="M342 471h83l-198 -557q-29 -82 -52 -109q-32 -38 -93 -38q-36 0 -73 11v71q29 -8 51 -8q40 0 60 25q14 18 34 74l20 57l-160 474h85l118 -374zM237 666h86l-86 -144h-41z" />
    <glyph glyph-name="HT" 
 />
    <glyph glyph-name="Thorn" unicode="&#xde;" horiz-adv-x="625" 
d="M371 170h-204v-170h-91v706h91v-129h214q76 0 112 -12q121 -40 121 -188q0 -67 -33 -120q-35 -57 -97 -76q-36 -11 -113 -11zM167 496v-243h197q49 0 70 4q43 8 66 44q21 32 21 78q0 117 -136 117h-218z" />
    <glyph glyph-name="thorn" unicode="&#xfe;" horiz-adv-x="562" 
d="M64 -223v930h79v-303q29 32 44 43q54 39 124 39q99 0 158 -78q54 -71 54 -173q0 -109 -55 -176q-59 -73 -166 -73q-102 0 -159 70v-279h-79zM288 411q-73 -3 -111 -58q-34 -49 -34 -125q0 -75 35 -121q39 -51 112 -51q51 0 83 21q68 44 68 159q0 77 -37 125
q-41 53 -116 50z" />
    <glyph glyph-name="nonmarkingreturn" 
 />
    <glyph glyph-name="Zcaron" unicode="&#x17d;" horiz-adv-x="604" 
d="M53 706h508v-88l-434 -533h444v-85h-553v92l436 527h-401v87zM362 895h74l-100 -124h-66l-105 124h76l62 -76z" />
    <glyph glyph-name="zcaron" unicode="&#x17e;" horiz-adv-x="417" 
d="M38 471h345v-64l-273 -341h279v-66h-376v66l271 336h-246v69zM274 673h71l-96 -151h-67l-102 151h74l61 -96z" />
    <glyph glyph-name="onehalf" unicode="&#xbd;" horiz-adv-x="875" 
d="M80 560v45q48 4 69 18q27 17 35 61h49v-452h-67v328h-86zM543 682l54 -26l-318 -684l-55 25zM616 254h-66q-6 30 -6 52q0 67 40.5 105.5t107.5 38.5q63 0 103.5 -38t40.5 -101q0 -120 -203 -255h208v-56h-297v61q90 52 151 113q76 77 76 139q0 37 -23 58.5t-60 21.5
q-80 0 -80 -87q0 -24 8 -52z" />
    <glyph glyph-name="onequarter" unicode="&#xbc;" horiz-adv-x="875" 
d="M80 560v45q48 4 69 18q27 17 35 61h49v-452h-67v328h-86zM566 682l54 -26l-317 -684l-56 25zM522 166l214 285h53v-287h64v-55h-65v-109h-63v109h-203v57zM589 165h137l2 191z" />
    <glyph glyph-name="onesuperior" unicode="&#xb9;" horiz-adv-x="375" 
d="M80 560v45q48 4 69 18q27 17 35 61h49v-451h-67v327h-86z" />
    <glyph glyph-name="threequarters" unicode="&#xbe;" horiz-adv-x="875" 
d="M100 521l-65 2q1 23 3 37q17 123 147 123q64 0 106 -33q46 -35 46 -97q0 -68 -72 -91q85 -20 85 -105q0 -66 -47 -101q-42 -32 -110 -32q-164 0 -172 152h67q4 -94 100 -94q93 0 93 76q0 71 -88 71h-39v58h32q35 0 59.5 17t24.5 50q0 34 -25 53t-60 19q-51 0 -71 -37
q-11 -20 -14 -68zM609 682l54 -26l-317 -684l-55 25zM522 166l214 284h53v-286h64v-55h-65v-109h-63v109h-203v57zM588 165h138l2 191z" />
    <glyph glyph-name="threesuperior" unicode="&#xb3;" horiz-adv-x="375" 
d="M100 521l-65 2q1 23 3 37q17 123 147 123q64 0 106 -33q46 -35 46 -97q0 -68 -72 -91q85 -20 85 -105q0 -66 -47 -101q-42 -32 -110 -32q-164 0 -172 152h67q4 -94 100 -94q93 0 93 76q0 48 -35 63q-19 8 -67 8h-25v58h32q35 0 59.5 17t24.5 50q0 34 -25 53t-60 19
q-51 0 -71 -37q-11 -20 -14 -68z" />
    <glyph glyph-name="twosuperior" unicode="&#xb2;" horiz-adv-x="375" 
d="M115 487h-66q-6 30 -6 53q0 66 40.5 104.5t106.5 38.5q64 0 104.5 -37.5t40.5 -101.5q0 -120 -203 -255h208v-56h-297v61q86 49 150 113q77 77 77 139q0 36 -23.5 58t-60.5 22q-79 0 -79 -87q0 -24 8 -52z" />
    <glyph glyph-name="brokenbar" unicode="&#xa6;" horiz-adv-x="229" 
d="M74 -175v350h80v-350h-80zM154 325h-80v350h80v-350z" />
    <glyph glyph-name="minus" unicode="&#xad;" horiz-adv-x="667" 
d="M667 332v-79h-667v79h667z" />
    <glyph glyph-name="minus" unicode="&#x2212;" horiz-adv-x="667" 
d="M667 332v-79h-667v79h667z" />
    <glyph glyph-name="multiply" unicode="&#xd7;" horiz-adv-x="667" 
d="M590 92l-56 -56l-200 200l-202 -200l-55 56l201 200l-201 201l55 56l202 -201l200 201l56 -56l-200 -201z" />
    <glyph glyph-name="Adieresis" unicode="&#xc4;" horiz-adv-x="646" 
d="M535 0l-77 216h-269l-79 -216h-100l269 706h98l257 -706h-99zM219 295h211l-103 294zM185 883h87v-102h-87v102zM381 883h87v-102h-87v102z" />
    <glyph glyph-name="Aring" unicode="&#xc5;" horiz-adv-x="646" 
d="M535 0l-77 216h-269l-79 -216h-100l269 706h98l257 -706h-99zM219 295h211l-103 294zM327 944q40 0 68 -27.5t28 -67.5t-28 -68t-68 -28t-67.5 28t-27.5 68q0 39 28 67t67 28zM328 900q-22 0 -36.5 -14.5t-14.5 -36.5t14.5 -36.5t36.5 -14.5q21 0 35.5 15t14.5 36
t-14.5 36t-35.5 15z" />
    <glyph glyph-name="Ccedilla" unicode="&#xc7;" horiz-adv-x="750" 
d="M640 268l102 -12q-28 -126 -128 -203q-49 -38 -100 -53q-30 -9 -93 -15l-16 -28l26 -13q36 -18 36 -60q0 -75 -126 -86v21q52 -3 52 36q0 25 -32 38l-28 11l51 79q-85 9 -125 23q-68 24 -120 83q-90 103 -90 264q0 170 95.5 270.5t263.5 100.5q242 0 320 -216l-95 -20
q-8 23 -15 38q-9 20 -27 41q-68 82 -184 82q-125 0 -192 -85q-62 -78 -62 -206q0 -129 60 -209q67 -89 192 -89q97 0 158.5 55.5t76.5 152.5z" />
    <glyph glyph-name="Eacute" unicode="&#xc9;" horiz-adv-x="604" 
d="M513 322h-344v-240h408v-82h-499v706h487v-83h-396v-218h344v-83zM318 895h99l-87 -124h-60z" />
    <glyph glyph-name="Ntilde" unicode="&#xd1;" horiz-adv-x="708" 
d="M545 706h85v-706h-85l-387 574l8 -574h-88v706h88l383 -566zM453 883h47q-18 -101 -83 -101q-21 0 -65.5 17.5t-61.5 17.5q-26 0 -33 -31h-48q11 99 87 99q21 0 61 -15q51 -19 63 -19q25 0 33 32z" />
    <glyph glyph-name="Odieresis" unicode="&#xd6;" horiz-adv-x="812" 
d="M762 360q0 -169 -93 -272q-97 -106 -265 -106q-163 0 -259 105q-94 102 -94 266q0 166 96 268.5t260 102.5q162 0 258.5 -100.5t96.5 -263.5zM660 359q-1 127 -62 204q-67 85 -191 85q-127 0 -194 -87q-60 -78 -60 -209q0 -128 62 -208q68 -88 193 -88q128 0 194 91
q59 80 58 212zM269 883h87v-102h-87v102zM465 883h87v-102h-87v102z" />
    <glyph glyph-name="Udieresis" unicode="&#xdc;" horiz-adv-x="688" 
d="M516 707h95v-451q0 -54 -9 -92q-21 -89 -98 -137q-70 -44 -166 -44q-144 0 -217 94q-32 41 -41 89q-5 26 -5 103v438h95v-425q0 -65 4 -90q10 -63 54 -96.5t110 -33.5q138 0 169 117q9 34 9 105v423zM202 883h87v-102h-87v102zM398 883h87v-102h-87v102z" />
    <glyph glyph-name="aacute" unicode="&#xe1;" horiz-adv-x="500" 
d="M271 276l75 6v12q0 58 -13 84q-23 47 -93 47q-101 0 -101 -99l-84 5q11 90 68 126q46 29 114 29q157 0 183 -112q6 -26 6 -87v-153q0 -34 3 -44q6 -24 31 -24q14 0 26 5v-69q-35 -8 -50 -8q-72 0 -82 70q-74 -77 -162 -77q-65 0 -110 34q-50 38 -50 101q0 135 239 154z
M347 231q-52 -7 -124 -22q-103 -21 -103 -85q0 -35 28 -54q24 -16 61 -16q92 0 125 71q13 28 13 106zM269 666h86l-86 -144h-41z" />
    <glyph glyph-name="agrave" unicode="&#xe0;" horiz-adv-x="500" 
d="M271 276l75 6v12q0 58 -13 84q-23 47 -93 47q-101 0 -101 -99l-84 5q11 90 68 126q46 29 114 29q157 0 183 -112q6 -26 6 -87v-153q0 -34 3 -44q6 -24 31 -24q14 0 26 5v-69q-35 -8 -50 -8q-72 0 -82 70q-74 -77 -162 -77q-65 0 -110 34q-50 38 -50 101q0 135 239 154z
M347 231q-52 -7 -124 -22q-103 -21 -103 -85q0 -35 28 -54q24 -16 61 -16q92 0 125 71q13 28 13 106zM151 665h88l41 -144h-47z" />
    <glyph glyph-name="acircumflex" unicode="&#xe2;" horiz-adv-x="500" 
d="M271 276l75 6v12q0 58 -13 84q-23 47 -93 47q-101 0 -101 -99l-84 5q11 90 68 126q46 29 114 29q157 0 183 -112q6 -26 6 -87v-153q0 -34 3 -44q6 -24 31 -24q14 0 26 5v-69q-35 -8 -50 -8q-72 0 -82 70q-74 -77 -162 -77q-65 0 -110 34q-50 38 -50 101q0 135 239 154z
M347 231q-52 -7 -124 -22q-103 -21 -103 -85q0 -35 28 -54q24 -16 61 -16q92 0 125 71q13 28 13 106zM192 523h-70l94 151h67l104 -151h-75l-61 95z" />
    <glyph glyph-name="adieresis" unicode="&#xe4;" horiz-adv-x="500" 
d="M271 276l75 6v12q0 58 -13 84q-23 47 -93 47q-101 0 -101 -99l-84 5q11 90 68 126q46 29 114 29q157 0 183 -112q6 -26 6 -87v-153q0 -34 3 -44q6 -24 31 -24q14 0 26 5v-69q-35 -8 -50 -8q-72 0 -82 70q-74 -77 -162 -77q-65 0 -110 34q-50 38 -50 101q0 135 239 154z
M347 231q-52 -7 -124 -22q-103 -21 -103 -85q0 -35 28 -54q24 -16 61 -16q92 0 125 71q13 28 13 106zM105 644h87v-103h-87v103zM302 644h88v-103h-88v103z" />
    <glyph glyph-name="atilde" unicode="&#xe3;" horiz-adv-x="500" 
d="M271 276l75 6v12q0 58 -13 84q-23 47 -93 47q-101 0 -101 -99l-84 5q11 90 68 126q46 29 114 29q157 0 183 -112q6 -26 6 -87v-153q0 -34 3 -44q6 -24 31 -24q14 0 26 5v-69q-35 -8 -50 -8q-72 0 -82 70q-74 -77 -162 -77q-65 0 -110 34q-50 38 -50 101q0 135 239 154z
M347 231q-52 -7 -124 -22q-103 -21 -103 -85q0 -35 28 -54q24 -16 61 -16q92 0 125 71q13 28 13 106zM349 635v0h48q-14 -100 -82 -100q-23 0 -66 16q-51 19 -62 19q-25 0 -33 -31h-49q14 99 87 99q20 0 73 -20q37 -14 53 -14q25 0 31 31z" />
    <glyph glyph-name="aring" unicode="&#xe5;" horiz-adv-x="500" 
d="M271 276l75 6v12q0 58 -13 84q-23 47 -93 47q-101 0 -101 -99l-84 5q11 90 68 126q46 29 114 29q157 0 183 -112q6 -26 6 -87v-153q0 -34 3 -44q6 -24 31 -24q14 0 26 5v-69q-35 -8 -50 -8q-72 0 -82 70q-74 -77 -162 -77q-65 0 -110 34q-50 38 -50 101q0 135 239 154z
M347 231q-52 -7 -124 -22q-103 -21 -103 -85q0 -35 28 -54q24 -16 61 -16q92 0 125 71q13 28 13 106zM152 608q0 39 27.5 66.5t66.5 27.5t66.5 -27.5t27.5 -66.5t-27.5 -66.5t-66.5 -27.5t-66.5 27.5t-27.5 66.5zM195 609q0 -21 15 -36t36 -15t36 15t15 36t-15 36t-36 15
t-36 -15t-15 -36z" />
    <glyph glyph-name="ccedilla" unicode="&#xe7;" horiz-adv-x="521" 
d="M407 178l86 -8q-3 -14 -7.5 -34.5t-18.5 -45.5q-51 -93 -175 -102l-17 -31l26 -13q36 -18 36 -60q0 -75 -126 -86v21q52 -3 52 36q0 26 -31 38l-29 11l53 83q-53 5 -77 14q-43 16 -78 55q-62 70 -62 178q0 110 59 179q62 73 170 73q107 0 169 -66q38 -40 48 -92l-89 -8
q-17 108 -126 108q-76 0 -113 -61q-30 -49 -30 -130t33 -131q38 -59 115 -59q113 0 132 131z" />
    <glyph glyph-name="eacute" unicode="&#xe9;" horiz-adv-x="521" 
d="M402 156l81 -11q-55 -159 -213 -159q-111 0 -173 73q-58 68 -58 181q0 105 62 175.5t166 70.5q79 0 134 -45t73 -122q9 -39 9 -96h-358q-2 -75 37 -124q42 -53 115 -53q101 0 125 110zM127 280h269q-4 64 -37 103q-37 42 -98 42q-59 0 -95 -44q-33 -40 -39 -101zM279 666
h86l-86 -144h-41z" />
    <glyph glyph-name="egrave" unicode="&#xe8;" horiz-adv-x="521" 
d="M402 156l81 -11q-55 -159 -213 -159q-111 0 -173 73q-58 68 -58 181q0 105 62 175.5t166 70.5q79 0 134 -45t73 -122q9 -39 9 -96h-358q-2 -75 37 -124q42 -53 115 -53q101 0 125 110zM127 280h269q-4 64 -37 103q-37 42 -98 42q-59 0 -95 -44q-33 -40 -39 -101zM165 665
h88l41 -144h-47z" />
    <glyph glyph-name="ecircumflex" unicode="&#xea;" horiz-adv-x="521" 
d="M402 156l81 -11q-55 -159 -213 -159q-111 0 -173 73q-58 68 -58 181q0 105 62 175.5t166 70.5q79 0 134 -45t73 -122q9 -39 9 -96h-358q-2 -75 37 -124q42 -53 115 -53q101 0 125 110zM127 280h269q-4 64 -37 103q-37 42 -98 42q-59 0 -95 -44q-33 -40 -39 -101zM201 523
h-70l94 151h67l104 -151h-75l-61 95z" />
    <glyph glyph-name="edieresis" unicode="&#xeb;" horiz-adv-x="521" 
d="M402 156l81 -11q-55 -159 -213 -159q-111 0 -173 73q-58 68 -58 181q0 105 62 175.5t166 70.5q79 0 134 -45t73 -122q9 -39 9 -96h-358q-2 -75 37 -124q42 -53 115 -53q101 0 125 110zM127 280h269q-4 64 -37 103q-37 42 -98 42q-59 0 -95 -44q-33 -40 -39 -101zM130 644
h87v-103h-87v103zM327 644h88v-103h-88v103z" />
    <glyph glyph-name="iacute" unicode="&#xed;" horiz-adv-x="208" 
d="M67 471h77v-471h-77v471zM117 666h86l-86 -144h-41z" />
    <glyph glyph-name="igrave" unicode="&#xec;" horiz-adv-x="208" 
d="M67 471h77v-471h-77v471zM9 665h88l41 -144h-47z" />
    <glyph glyph-name="icircumflex" unicode="&#xee;" horiz-adv-x="208" 
d="M67 471h77v-471h-77v471zM45 523h-70l94 151h67l104 -151h-75l-61 95z" />
    <glyph glyph-name="idieresis" unicode="&#xef;" horiz-adv-x="208" 
d="M67 471h77v-471h-77v471zM-37 644h87v-103h-87v103zM160 644h88v-103h-88v103z" />
    <glyph glyph-name="ntilde" unicode="&#xf1;" horiz-adv-x="521" 
d="M65 471h80v-69q48 84 147 84q55 0 97.5 -28.5t57.5 -79.5q8 -27 8 -97v-281h-79v268q0 62 -5 78q-20 65 -101 65q-62 0 -95 -41q-30 -37 -30 -101v-269h-80v471zM358 635v0h48q-14 -100 -82 -100q-23 0 -66 16q-51 19 -62 19q-25 0 -33 -31h-49q14 99 87 99q20 0 73 -20
q37 -14 53 -14q25 0 31 31z" />
    <glyph glyph-name="oacute" unicode="&#xf3;" horiz-adv-x="542" 
d="M502 236q-1 -110 -60 -178q-62 -72 -170 -72t-171 70q-61 67 -61 176q0 97 49 166q63 88 186 88q107 0 169 -73q59 -68 58 -177zM415 236q2 79 -27 128q-36 58 -111 58q-78 0 -117 -59q-33 -50 -33 -132q0 -79 32 -126q37 -55 112 -55q139 0 144 186zM285 666h86
l-86 -144h-41z" />
    <glyph glyph-name="ograve" unicode="&#xf2;" horiz-adv-x="542" 
d="M502 236q-1 -110 -60 -178q-62 -72 -170 -72t-171 70q-61 67 -61 176q0 97 49 166q63 88 186 88q107 0 169 -73q59 -68 58 -177zM415 236q2 79 -27 128q-36 58 -111 58q-78 0 -117 -59q-33 -50 -33 -132q0 -79 32 -126q37 -55 112 -55q139 0 144 186zM177 665h88l41 -144
h-47z" />
    <glyph glyph-name="ocircumflex" unicode="&#xf4;" horiz-adv-x="542" 
d="M502 236q-1 -110 -60 -178q-62 -72 -170 -72t-171 70q-61 67 -61 176q0 97 49 166q63 88 186 88q107 0 169 -73q59 -68 58 -177zM415 236q2 79 -27 128q-36 58 -111 58q-78 0 -117 -59q-33 -50 -33 -132q0 -79 32 -126q37 -55 112 -55q139 0 144 186zM213 523h-70l94 151
h67l104 -151h-75l-61 95z" />
    <glyph glyph-name="odieresis" unicode="&#xf6;" horiz-adv-x="542" 
d="M502 236q-1 -110 -60 -178q-62 -72 -170 -72t-171 70q-61 67 -61 176q0 97 49 166q63 88 186 88q107 0 169 -73q59 -68 58 -177zM415 236q2 79 -27 128q-36 58 -111 58q-78 0 -117 -59q-33 -50 -33 -132q0 -79 32 -126q37 -55 112 -55q139 0 144 186zM144 644h87v-103
h-87v103zM341 644h88v-103h-88v103z" />
    <glyph glyph-name="otilde" unicode="&#xf5;" horiz-adv-x="542" 
d="M502 236q-1 -110 -60 -178q-62 -72 -170 -72t-171 70q-61 67 -61 176q0 97 49 166q63 88 186 88q107 0 169 -73q59 -68 58 -177zM415 236q2 79 -27 128q-36 58 -111 58q-78 0 -117 -59q-33 -50 -33 -132q0 -79 32 -126q37 -55 112 -55q139 0 144 186zM370 635v0h48
q-14 -100 -82 -100q-23 0 -66 16q-51 19 -62 19q-25 0 -33 -31h-49q14 99 87 99q20 0 73 -20q37 -14 53 -14q25 0 31 31z" />
    <glyph glyph-name="uacute" unicode="&#xfa;" horiz-adv-x="521" 
d="M65 195v276h79v-269q0 -50 2 -65q10 -74 94 -74q51 0 86.5 25.5t44.5 74.5q4 21 4 72v236h79v-471h-79v72q-63 -84 -161 -84q-56 0 -95.5 29.5t-49.5 83.5q-4 22 -4 94zM273 666h86l-86 -144h-41z" />
    <glyph glyph-name="ugrave" unicode="&#xf9;" horiz-adv-x="521" 
d="M65 195v276h79v-269q0 -50 2 -65q10 -74 94 -74q51 0 86.5 25.5t44.5 74.5q4 21 4 72v236h79v-471h-79v72q-63 -84 -161 -84q-56 0 -95.5 29.5t-49.5 83.5q-4 22 -4 94zM165 665h88l41 -144h-47z" />
    <glyph glyph-name="ucircumflex" unicode="&#xfb;" horiz-adv-x="521" 
d="M65 195v276h79v-269q0 -50 2 -65q10 -74 94 -74q51 0 86.5 25.5t44.5 74.5q4 21 4 72v236h79v-471h-79v72q-63 -84 -161 -84q-56 0 -95.5 29.5t-49.5 83.5q-4 22 -4 94zM201 523h-70l94 151h67l104 -151h-75l-61 95z" />
    <glyph glyph-name="udieresis" unicode="&#xfc;" horiz-adv-x="521" 
d="M65 195v276h79v-269q0 -50 2 -65q10 -74 94 -74q51 0 86.5 25.5t44.5 74.5q4 21 4 72v236h79v-471h-79v72q-63 -84 -161 -84q-56 0 -95.5 29.5t-49.5 83.5q-4 22 -4 94zM116 644h87v-103h-87v103zM313 644h88v-103h-88v103z" />
    <glyph glyph-name="degree" unicode="&#xb0;" horiz-adv-x="354" 
d="M16 595q0 67 47 114t114 47t114 -47t47 -114t-47 -114t-114 -47t-114 47t-47 114zM98 595q0 -33 23 -56t56 -23t56 23t23 56t-23 56t-56 23t-56 -23t-23 -56z" />
    <glyph glyph-name="registered" unicode="&#xae;" horiz-adv-x="833" 
d="M266 580h146q74 0 105 -11q72 -26 72 -104q0 -83 -92 -107q32 -15 45 -35.5t19 -58.5q9 -59 11 -68q8 -34 23 -65h-91q-12 20 -18 62q-3 23 -11 70q-9 44 -33 58q-19 11 -68 11h-28v-201h-80v449zM347 518v-122h66q96 0 96 62q0 39 -32 53q-16 7 -79 7h-51zM773 351
q-1 -151 -103.5 -252.5t-253.5 -101.5q-150 0 -252.5 102.5t-102.5 252.5q0 151 102 254t253 103q152 0 255 -103t102 -255zM741 351q1 138 -92 232t-231 94t-231.5 -93.5t-93.5 -231.5q0 -136 94 -229.5t230 -93.5q137 0 230 92.5t94 229.5z" />
    <glyph glyph-name="copyright" unicode="&#xa9;" horiz-adv-x="833" 
d="M773 352q0 -152 -102.5 -253.5t-254.5 -101.5q-150 0 -252.5 103t-102.5 253q0 151 103 253.5t254 102.5q152 0 253.5 -102.5t101.5 -254.5zM741 352q2 139 -90.5 232t-231.5 93q-138 0 -232 -93.5t-94 -231.5q0 -137 94.5 -230t231.5 -93t228.5 92.5t93.5 230.5z
M558 258l56 -49q-78 -91 -191 -91q-102 0 -168.5 66.5t-66.5 169.5q0 102 66.5 170t168.5 68q111 0 191 -90l-56 -52q-64 67 -133 67q-70 0 -114.5 -46t-44.5 -117q0 -69 45 -115t113 -46q74 0 134 65z" />
    <glyph glyph-name="trademark" unicode="&#x2122;" horiz-adv-x="687" 
d="M636 706v-332h-57l2 205l3 68l-16 -56l-68 -217h-52l-84 272l4 -67l2 -205h-56v332h79l83 -262l81 262h79zM181 657v-283h-58v283h-107v49h270v-49h-105z" />
    <glyph glyph-name="plusminus" unicode="&#xb1;" horiz-adv-x="667" 
d="M374 377v-243h-79v243h-254v79h254v242h79v-242h251v-79h-251zM625 79v-79h-584v79h584z" />
    <glyph glyph-name="mu" unicode="&#xb5;" horiz-adv-x="521" 
d="M65 -224v694h79v-265q0 -142 114 -142q117 0 117 151v256h79v-470h-79v72q-46 -84 -125 -84q-52 0 -106 56v-268h-79z" />
    <glyph glyph-name="mu" unicode="&#x3bc;" horiz-adv-x="521" 
d="M65 -224v694h79v-265q0 -142 114 -142q117 0 117 151v256h79v-470h-79v72q-46 -84 -125 -84q-52 0 -106 56v-268h-79z" />
    <glyph glyph-name="logicalnot" unicode="&#xac;" horiz-adv-x="667" 
d="M587 0v252h-587v80h667v-332h-80z" />
    <glyph glyph-name="Agrave" unicode="&#xc0;" horiz-adv-x="646" 
d="M535 0l-77 216h-269l-79 -216h-100l269 706h98l257 -706h-99zM219 295h211l-103 294zM219 895h99l47 -124h-60z" />
    <glyph glyph-name="Atilde" unicode="&#xc3;" horiz-adv-x="646" 
d="M535 0l-77 216h-269l-79 -216h-100l269 706h98l257 -706h-99zM219 295h211l-103 294zM422 883h47q-18 -101 -83 -101q-21 0 -65.5 17.5t-61.5 17.5q-26 0 -33 -31h-48q11 99 87 99q21 0 61 -15q51 -19 63 -19q25 0 33 32z" />
    <glyph glyph-name="Otilde" unicode="&#xd5;" horiz-adv-x="812" 
d="M762 360q0 -169 -93 -272q-97 -106 -265 -106q-163 0 -259 105q-94 102 -94 266q0 166 96 268.5t260 102.5q162 0 258.5 -100.5t96.5 -263.5zM660 359q-1 127 -62 204q-67 85 -191 85q-127 0 -194 -87q-60 -78 -60 -209q0 -128 62 -208q68 -88 193 -88q128 0 194 91
q59 80 58 212zM505 883h47q-18 -101 -83 -101q-21 0 -65.5 17.5t-61.5 17.5q-26 0 -33 -31h-48q11 99 87 99q21 0 61 -15q51 -19 63 -19q25 0 33 32z" />
    <glyph glyph-name="divide" unicode="&#xf7;" horiz-adv-x="667" 
d="M391 145q-1 -24 -17 -39.5t-40 -15.5q-23 0 -39.5 16t-16.5 39q0 24 16.5 40.5t40.5 16.5t40.5 -16.5t15.5 -40.5zM391 435q0 -24 -17 -40t-41 -16q-23 0 -39 16.5t-16 39.5q0 24 16.5 40t40.5 16t40 -16t16 -40zM667 330v-79h-667v79h667z" />
    <glyph glyph-name="ydieresis" unicode="&#xff;" horiz-adv-x="437" 
d="M342 471h83l-198 -557q-29 -82 -52 -109q-32 -38 -93 -38q-36 0 -73 11v71q29 -8 51 -8q40 0 60 25q14 18 34 74l20 57l-160 474h85l118 -374zM78 644h87v-103h-87v103zM275 644h88v-103h-88v103z" />
    <glyph glyph-name="Ydieresis" unicode="&#x178;" horiz-adv-x="625" 
d="M611 706l-254 -383v-323h-95v323l-249 383h112l185 -299l189 299h112zM171 883h87v-102h-87v102zM367 883h87v-102h-87v102z" />
    <glyph glyph-name="Acircumflex" unicode="&#xc2;" horiz-adv-x="646" 
d="M535 0l-77 216h-269l-79 -216h-100l269 706h98l257 -706h-99zM219 295h211l-103 294zM263 771h-74l100 124h65l107 -124h-77l-62 74z" />
    <glyph glyph-name="Ecircumflex" unicode="&#xca;" horiz-adv-x="604" 
d="M513 322h-344v-240h408v-82h-499v706h487v-83h-396v-218h344v-83zM258 771h-74l100 124h65l107 -124h-77l-62 74z" />
    <glyph glyph-name="Aacute" unicode="&#xc1;" horiz-adv-x="646" 
d="M535 0l-77 216h-269l-79 -216h-100l269 706h98l257 -706h-99zM219 295h211l-103 294zM329 895h99l-87 -124h-60z" />
    <glyph glyph-name="Edieresis" unicode="&#xcb;" horiz-adv-x="604" 
d="M513 322h-344v-240h408v-82h-499v706h487v-83h-396v-218h344v-83zM177 883h87v-102h-87v102zM373 883h87v-102h-87v102z" />
    <glyph glyph-name="Egrave" unicode="&#xc8;" horiz-adv-x="604" 
d="M513 322h-344v-240h408v-82h-499v706h487v-83h-396v-218h344v-83zM208 895h99l47 -124h-60z" />
    <glyph glyph-name="Iacute" unicode="&#xcd;" horiz-adv-x="229" 
d="M67 706h95v-706h-95v706zM121 895h99l-87 -124h-60z" />
    <glyph glyph-name="Icircumflex" unicode="&#xce;" horiz-adv-x="229" 
d="M67 706h95v-706h-95v706zM55 771h-74l100 124h65l107 -124h-77l-62 74z" />
    <glyph glyph-name="Idieresis" unicode="&#xcf;" horiz-adv-x="229" 
d="M67 706h95v-706h-95v706zM-26 883h87v-102h-87v102zM170 883h87v-102h-87v102z" />
    <glyph glyph-name="Igrave" unicode="&#xcc;" horiz-adv-x="229" 
d="M67 706h95v-706h-95v706zM11 895h99l47 -124h-60z" />
    <glyph glyph-name="Oacute" unicode="&#xd3;" horiz-adv-x="812" 
d="M762 360q0 -169 -93 -272q-97 -106 -265 -106q-163 0 -259 105q-94 102 -94 266q0 166 96 268.5t260 102.5q162 0 258.5 -100.5t96.5 -263.5zM660 359q-1 127 -62 204q-67 85 -191 85q-127 0 -194 -87q-60 -78 -60 -209q0 -128 62 -208q68 -88 193 -88q128 0 194 91
q59 80 58 212zM412 895h99l-87 -124h-60z" />
    <glyph glyph-name="Ocircumflex" unicode="&#xd4;" horiz-adv-x="812" 
d="M762 360q0 -169 -93 -272q-97 -106 -265 -106q-163 0 -259 105q-94 102 -94 266q0 166 96 268.5t260 102.5q162 0 258.5 -100.5t96.5 -263.5zM660 359q-1 127 -62 204q-67 85 -191 85q-127 0 -194 -87q-60 -78 -60 -209q0 -128 62 -208q68 -88 193 -88q128 0 194 91
q59 80 58 212zM346 771h-74l100 124h65l107 -124h-77l-62 74z" />
    <glyph glyph-name="Ograve" unicode="&#xd2;" horiz-adv-x="812" 
d="M762 360q0 -169 -93 -272q-97 -106 -265 -106q-163 0 -259 105q-94 102 -94 266q0 166 96 268.5t260 102.5q162 0 258.5 -100.5t96.5 -263.5zM660 359q-1 127 -62 204q-67 85 -191 85q-127 0 -194 -87q-60 -78 -60 -209q0 -128 62 -208q68 -88 193 -88q128 0 194 91
q59 80 58 212zM302 895h99l47 -124h-60z" />
    <glyph glyph-name="Uacute" unicode="&#xda;" horiz-adv-x="688" 
d="M516 707h95v-451q0 -54 -9 -92q-21 -89 -98 -137q-70 -44 -166 -44q-144 0 -217 94q-32 41 -41 89q-5 26 -5 103v438h95v-425q0 -65 4 -90q10 -63 54 -96.5t110 -33.5q138 0 169 117q9 34 9 105v423zM350 895h99l-87 -124h-60z" />
    <glyph glyph-name="Ucircumflex" unicode="&#xdb;" horiz-adv-x="688" 
d="M516 707h95v-451q0 -54 -9 -92q-21 -89 -98 -137q-70 -44 -166 -44q-144 0 -217 94q-32 41 -41 89q-5 26 -5 103v438h95v-425q0 -65 4 -90q10 -63 54 -96.5t110 -33.5q138 0 169 117q9 34 9 105v423zM284 771h-74l100 124h65l107 -124h-77l-62 74z" />
    <glyph glyph-name="Ugrave" unicode="&#xd9;" horiz-adv-x="688" 
d="M516 707h95v-451q0 -54 -9 -92q-21 -89 -98 -137q-70 -44 -166 -44q-144 0 -217 94q-32 41 -41 89q-5 26 -5 103v438h95v-425q0 -65 4 -90q10 -63 54 -96.5t110 -33.5q138 0 169 117q9 34 9 105v423zM240 895h99l47 -124h-60z" />
    <glyph glyph-name="euro" unicode="&#x20ac;" horiz-adv-x="750" 
d="M709 581l-29 -61q-83 102 -230 102q-90 0 -160.5 -52t-95.5 -138h445l-30 -63h-429q-2 -26 -2 -33q0 -8 2 -30h400l-30 -63h-356q27 -91 100 -142q70 -50 166 -50q138 0 220 99v-85q-96 -77 -225 -77q-122 0 -212 68q-93 69 -120 187h-113l30 63h71q-1 13 -1 31
q0 19 1 32h-101l30 63h83q27 118 122 187q91 66 215 66q70 0 136 -26q72 -28 113 -78z" />
    <glyph glyph-name="glyph234" 
 />
    <glyph glyph-name="glyph231" 
 />
  </font>
</defs>
</svg>
