<?xml version="1.0" standalone="no"?>
<!DOCTYPE svg PUBLIC "-//W3C//DTD SVG 1.1//EN" "http://www.w3.org/Graphics/SVG/1.1/DTD/svg11.dtd" >
<svg xmlns="http://www.w3.org/2000/svg" xmlns:xlink="http://www.w3.org/1999/xlink" version="1.1">
<metadata>
Created by FontForge 20170924 at Fri Jun  4 18:34:12 2004
 By www-data
Copyright (c) 1991 Adobe Systems Incorporated. All Rights Reserved.Berthold Akzidenz Grotesk is a registered trademark of H. Berthold AG.
</metadata>
<defs>
<font id="AkzidenzGroteskMd" horiz-adv-x="562" >
  <font-face 
    font-family="AkzidenzGroteskMd"
    font-weight="400"
    font-stretch="normal"
    units-per-em="1000"
    panose-1="0 0 4 0 0 0 0 0 0 0"
    ascent="800"
    descent="-200"
    x-height="500"
    cap-height="706"
    bbox="-145 -250 1225 963"
    underline-thickness="50"
    underline-position="-125"
    unicode-range="U+0020-F002"
  />
<missing-glyph horiz-adv-x="500" 
d="M63 0v963h375v-963h-375zM125 63h250v838h-250v-838z" />
    <glyph glyph-name=".notdef" horiz-adv-x="500" 
d="M63 0v963h375v-963h-375zM125 63h250v838h-250v-838z" />
    <glyph glyph-name=".null" horiz-adv-x="0" 
 />
    <glyph glyph-name="glyph2" horiz-adv-x="271" 
 />
    <glyph glyph-name="space" unicode=" " horiz-adv-x="271" 
 />
    <glyph glyph-name="exclam" unicode="!" horiz-adv-x="250" 
d="M211 436l-38 -260h-56l-37 260v270h131v-270zM80 138h131v-138h-131v138z" />
    <glyph glyph-name="quotedbl" unicode="&#x22;" horiz-adv-x="396" 
d="M363 680v0l-47 -259h-27l-47 247q-2 11 -2 22q0 27 19.5 43t46.5 16q46 0 56 -38q2 -8 1 -31zM154 680v0l-46 -259h-27l-47 247q-2 11 -2 22q0 27 19 43t47 16q57 0 57 -53q0 -8 -1 -16z" />
    <glyph glyph-name="numbersign" unicode="#" horiz-adv-x="667" 
d="M466 214l-31 -214h-101l31 214h-99l-30 -214h-102l30 214h-122v99h136l12 95h-125v100h138l27 199h104l-28 -199h98l27 199h101l-27 -199h117v-100h-130l-14 -95h123v-99h-135zM278 313h100l13 95h-99z" />
    <glyph glyph-name="dollar" unicode="$" horiz-adv-x="625" 
d="M359 805v-108q135 -15 215 -109l-94 -75q-30 38 -63 55q-17 9 -58 20v-160q227 -41 227 -209q0 -97 -67 -155q-59 -51 -160 -64v-114h-92v114q-72 13 -112 32q-70 33 -119 101l101 77q62 -84 130 -90v191q-213 20 -213 180q0 172 213 206v108h92zM267 444v144
q-34 -5 -56 -24q-25 -21 -25 -53q0 -52 81 -67zM359 297v-179q39 7 65 30q31 27 31 63q0 67 -96 86z" />
    <glyph glyph-name="percent" unicode="%" horiz-adv-x="875" 
d="M850 223q1 -79 -17 -126q-40 -104 -146 -104q-162 0 -162 231q0 95 34 153q42 72 131 72q157 0 160 -226zM760 220q0 152 -72 152q-73 0 -73 -156q0 -145 72 -145q73 0 73 149zM238 -5l316 682l67 -31l-314 -682zM351 458q1 -78 -15 -123q-39 -110 -149 -110
q-161 0 -161 227q0 97 33 155q42 74 132 74q157 0 160 -223zM261 457q0 148 -72 148q-73 0 -73 -157q0 -145 74 -145q46 0 62 57q9 32 9 97z" />
    <glyph glyph-name="ampersand" unicode="&#x26;" horiz-adv-x="646" 
d="M488 327h115q-17 -118 -82 -198q29 -31 71 -31q12 0 22 2v-100q-43 -3 -51 -3q-80 0 -126 41q-79 -53 -170 -53q-118 0 -178 71q-46 55 -46 128q0 121 154 209q-31 48 -31 104q0 73 45 119t118 46q67 0 115 -42t48 -108q0 -115 -133 -161q43 -81 92 -135q30 44 37 111z
M309 439q78 26 78 75q0 53 -54 53t-54 -52q0 -29 30 -76zM371 127l-120 177q-87 -50 -87 -112q0 -45 32 -74t78 -29q53 0 97 38z" />
    <glyph glyph-name="quotesingle" unicode="'" horiz-adv-x="208" 
d="M165 680v0l-47 -259h-27l-47 247q-1 5 -1 22q0 27 19 43t46 16q61 0 57 -69z" />
    <glyph glyph-name="parenleft" unicode="(" horiz-adv-x="354" 
d="M328 -41l-29 -50q-115 62 -184 185q-68 120 -68 253q0 247 246 439l35 -50q-29 -31 -49 -61q-92 -138 -92 -367q0 -100 34 -190q37 -99 107 -159z" />
    <glyph glyph-name="parenright" unicode=")" horiz-adv-x="354" 
d="M26 736l29 50q116 -63 185 -185q67 -118 67 -253q0 -250 -246 -439l-35 50q141 141 141 428q0 101 -34 190q-37 97 -107 159z" />
    <glyph glyph-name="asterisk" unicode="*" horiz-adv-x="375" 
d="M315 642l25 -64l-83 -32l-43 5l38 -23l54 -69l-54 -42l-54 67l-12 44l-9 -44l-49 -67l-56 42l49 69l30 18h-35l-81 25l22 66l78 -25l32 -27l-16 41v80h70v-80l-17 -41l32 27z" />
    <glyph glyph-name="plus" unicode="+" horiz-adv-x="667" 
d="M386 240v-240h-103v240h-241v102h241v241h103v-241h239v-102h-239z" />
    <glyph glyph-name="comma" unicode="," horiz-adv-x="208" 
d="M37 137h133v-121q0 -48 -5 -69q-15 -64 -120 -86v58q54 7 54 81h-62v137z" />
    <glyph glyph-name="hyphen" unicode="-" horiz-adv-x="354" 
d="M53 370h248v-112h-248v112z" />
    <glyph glyph-name="hyphen" unicode="&#x2010;" horiz-adv-x="354" 
d="M53 370h248v-112h-248v112z" />
    <glyph glyph-name="period" unicode="." horiz-adv-x="208" 
d="M37 137h132v-137h-132v137z" />
    <glyph glyph-name="slash" unicode="/" horiz-adv-x="479" 
d="M13 0l336 706h118l-335 -706h-119z" />
    <glyph glyph-name="zero" unicode="0" 
d="M529 341q0 -262 -146 -329q-46 -21 -102 -21q-130 0 -196 105q-49 78 -49 238q0 352 251 352q133 0 194 -113q48 -88 48 -232zM400 337q0 239 -114 239q-77 0 -104 -91q-16 -54 -16 -153q0 -96 16 -146q27 -84 102 -84q76 0 102 87q14 47 14 148z" />
    <glyph glyph-name="one" unicode="1" 
d="M263 675h100v-675h-123v386q0 53 -7 66q-9 17 -48 17h-110v77h13q67 0 101 17q56 28 74 112z" />
    <glyph glyph-name="two" unicode="2" 
d="M221 104h295v-104h-459v97q116 80 194 162q116 121 116 211q0 44 -23 72.5t-66 28.5q-64 0 -85 -60q-11 -32 -10 -96l-126 11q0 118 56 186q60 74 175 74q99 0 158 -56.5t59 -154.5q0 -127 -141 -254q-70 -63 -143 -117z" />
    <glyph glyph-name="three" unicode="3" 
d="M193 462l-132 28q38 196 232 196q77 0 135 -35q80 -48 80 -144q0 -114 -112 -145q60 -12 94 -56t34 -106q0 -101 -72 -157q-66 -52 -169 -52q-111 0 -173.5 59.5t-62.5 170.5h133q-1 -7 -1 -21q0 -46 29.5 -73t76.5 -27q49 0 77 29t28 78q0 103 -118 99l-33 -1v105l55 -1
q81 -1 81 80q0 38 -24 62t-62 24q-91 0 -96 -113z" />
    <glyph glyph-name="four" unicode="4" 
d="M435 258h88v-102h-88v-156h-122v156h-296v88l296 432h122v-418zM146 258h167l7 268z" />
    <glyph glyph-name="five" unicode="5" 
d="M480 677l-10 -113h-263l-23 -149q50 50 130 50q96 0 152 -66q53 -62 53 -159q0 -114 -68.5 -181.5t-182.5 -67.5q-100 0 -160 49q-63 51 -72 149l140 10q2 -45 27.5 -72.5t69.5 -27.5q57 0 85 41q25 36 25 95q0 55 -29 91t-83 36q-77 0 -101 -63l-113 7l48 371h375z" />
    <glyph glyph-name="six" unicode="6" 
d="M505 518l-128 -18q-1 35 -22.5 55.5t-56.5 20.5q-109 0 -120 -209q54 68 142 68q90 0 143 -61q50 -57 50 -149q0 -103 -62 -168.5t-165 -65.5q-238 0 -238 327q0 154 48 246q63 122 203 122q122 0 178 -89q20 -32 28 -79zM387 212q0 110 -96 110q-47 0 -74 -30.5
t-27 -78.5q0 -49 24 -78q26 -32 74 -32t73.5 30t25.5 79z" />
    <glyph glyph-name="seven" unicode="7" 
d="M512 677v-109q-197 -245 -227 -568h-165q10 61 21 109q35 151 125 299q32 52 103 151h-305v118h448z" />
    <glyph glyph-name="eight" unicode="8" 
d="M427 353q104 -52 104 -159q0 -99 -80 -154q-70 -49 -173 -49t-171 49q-78 55 -78 154q0 107 111 159q-87 41 -87 147q0 91 73 141q64 45 159 45q98 0 160 -46q70 -51 70 -146q0 -98 -88 -141zM284 576q-103 1 -103 -91q0 -89 104 -89q99 0 99 89q0 90 -100 91zM284 295
q-49 0 -80 -24q-34 -26 -34 -73q0 -48 34 -73q31 -23 80 -23q48 0 80.5 25t32.5 72q0 96 -113 96z" />
    <glyph glyph-name="nine" unicode="9" 
d="M50 161l137 20q4 -25 11 -38q22 -42 70 -42q61 0 90 74q21 53 21 125q-41 -59 -135 -59q-92 0 -144 61q-50 58 -50 151q0 107 61.5 170t167.5 63q129 0 189 -102q48 -82 48 -220q0 -155 -53 -251q-67 -122 -210 -122q-118 0 -172 86q-21 33 -31 84zM369 459q0 49 -22 81
q-25 37 -72 37q-46 0 -70.5 -32t-24.5 -79q0 -50 22 -81q25 -36 73 -36q47 0 72 33q22 29 22 77z" />
    <glyph glyph-name="colon" unicode=":" horiz-adv-x="250" 
d="M78 509h132v-137h-132v137zM78 137h132v-137h-132v137z" />
    <glyph glyph-name="semicolon" unicode=";" horiz-adv-x="250" 
d="M78 509h133v-138h-133v138zM78 137h133v-127q0 -49 -4 -65q-15 -61 -122 -85v60q10 1 34 14q21 19 21 66h-62v137z" />
    <glyph glyph-name="less" unicode="&#x3c;" horiz-adv-x="667" 
d="M667 109v-112l-667 303v104l667 305v-113l-529 -244z" />
    <glyph glyph-name="equal" unicode="=" horiz-adv-x="667" 
d="M667 249v-103h-667v103h667zM667 437v-103h-667v103h667z" />
    <glyph glyph-name="greater" unicode="&#x3e;" horiz-adv-x="667" 
d="M667 300l-667 -303v112l528 243l-528 244v113l667 -305v-104z" />
    <glyph glyph-name="question" unicode="?" 
d="M174 473l-121 14q7 109 70.5 170t172.5 61q100 0 166 -53q72 -57 72 -155q0 -101 -81 -159q-24 -17 -60 -44q-24 -18 -32 -46q-5 -17 -5 -52q0 -21 1 -28h-117q0 105 14 146q11 32 45 60q28 18 51 35q47 34 47 85q0 43 -31.5 70t-75.5 27q-109 0 -116 -131zM233 137h133
v-137h-133v137z" />
    <glyph glyph-name="at" unicode="@" horiz-adv-x="896" 
d="M783 89l40 -51q-167 -162 -368 -162q-147 0 -253 78q-133 98 -133 282q0 198 130 337t327 139q137 0 219 -76t82 -212q0 -117 -58 -226q-69 -130 -177 -130q-79 0 -86 77q-60 -76 -135 -76q-67 0 -103 51q-32 45 -32 114q0 101 55 187q63 99 159 99q75 0 111 -72l12 51
h79l-33 -154q-28 -131 -28 -170q0 -35 25 -35q42 0 89 83q51 91 51 195q0 108 -62.5 168t-171.5 60q-167 0 -278 -123q-106 -118 -106 -287q0 -151 105 -229q86 -64 210 -64q182 0 330 146zM532 349q1 39 -17 65q-20 30 -58 30q-60 0 -98 -76q-32 -64 -32 -130q0 -37 17 -63
q20 -30 55 -30q60 0 99 75q33 63 34 129z" />
    <glyph glyph-name="A" unicode="A" horiz-adv-x="646" 
d="M495 0l-41 138h-265l-41 -138h-141l238 706h150l241 -706h-141zM224 253h195l-97 325z" />
    <glyph glyph-name="B" unicode="B" horiz-adv-x="688" 
d="M81 0v706h252q112 0 153 -12q55 -16 89.5 -60t34.5 -101q0 -58 -31 -97t-87 -50q70 -12 110.5 -63t40.5 -123q0 -138 -126 -183q-48 -17 -160 -17h-276zM212 598v-176h45q141 0 170 15q47 24 47 73q0 88 -108 88h-154zM343 322l-131 1v-209h130q64 0 83 3q82 13 82 95
q0 109 -164 110z" />
    <glyph glyph-name="C" unicode="C" horiz-adv-x="688" 
d="M548 249l124 -52q-85 -215 -305 -215q-158 0 -247 110q-83 101 -83 263t85 262q90 107 250 107q217 0 288 -218l-132 -35q-9 62 -49.5 97t-103.5 35q-96 0 -149 -78q-46 -67 -46 -168q0 -104 45 -171q52 -79 151 -79q82 0 135 69q24 31 37 73z" />
    <glyph glyph-name="D" unicode="D" horiz-adv-x="708" 
d="M71 0v706h253q131 0 209 -55q136 -96 136 -304q0 -95 -33 -172q-38 -89 -112 -132t-227 -43h-226zM273 586h-70v-467h56q123 0 165 16q105 40 105 211q0 170 -108 221q-40 19 -148 19z" />
    <glyph glyph-name="E" unicode="E" horiz-adv-x="625" 
d="M580 588h-372v-166h340v-114h-340v-189h397v-119h-527v706h502v-118z" />
    <glyph glyph-name="F" unicode="F" 
d="M212 588v-176h295v-113h-295v-299h-131v706h467v-118h-336z" />
    <glyph glyph-name="G" unicode="G" horiz-adv-x="750" 
d="M388 386h297v-386h-113v60q-79 -78 -193 -78q-156 0 -247 106q-86 99 -86 258t90 265q95 113 251 113q103 0 182.5 -55.5t115.5 -152.5l-126 -51q-47 140 -171 140q-100 0 -153 -81q-45 -68 -45 -174q0 -102 48 -169q53 -75 152 -75q76 0 121.5 44t52.5 120h-176v116z
" />
    <glyph glyph-name="H" unicode="H" horiz-adv-x="729" 
d="M516 706h133v-706h-133v321h-303v-321h-132v706h132v-267h303v267z" />
    <glyph glyph-name="I" unicode="I" horiz-adv-x="292" 
d="M80 706h130v-706h-130v706z" />
    <glyph glyph-name="J" unicode="J" horiz-adv-x="396" 
d="M202 706h131v-499q0 -99 -32 -144q-56 -78 -194 -78q-33 0 -81 9v130q48 -10 70 -10q90 0 103 72q3 17 3 69v451z" />
    <glyph glyph-name="K" unicode="K" horiz-adv-x="667" 
d="M650 706l-232 -266l247 -440h-151l-188 332l-115 -132v-200h-131v706h131v-324l283 324h156z" />
    <glyph glyph-name="L" unicode="L" horiz-adv-x="521" 
d="M215 707v-587h280v-120h-413v707h133z" />
    <glyph glyph-name="M" unicode="M" horiz-adv-x="812" 
d="M541 706h192v-706h-129l12 580l-152 -580h-119l-153 580l13 -580h-129v706h192l138 -524z" />
    <glyph glyph-name="N" unicode="N" horiz-adv-x="708" 
d="M513 207l-16 499h130v-706h-115l-309 495l8 -495h-129v706h119z" />
    <glyph glyph-name="O" unicode="O" horiz-adv-x="771" 
d="M725 353q-1 -161 -89 -263q-92 -108 -251 -108q-154 0 -248 109q-89 104 -89 261q0 159 89 262q94 110 250 110q157 0 250 -109q89 -103 88 -262zM593 338q2 108 -47 181q-56 84 -160 84q-98 0 -153 -76q-49 -67 -49 -169q0 -106 48 -175q55 -79 157 -79q96 0 151 71
q51 64 53 163z" />
    <glyph glyph-name="P" unicode="P" horiz-adv-x="625" 
d="M82 0v706h238q81 0 121 -11q79 -22 122.5 -81.5t43.5 -142.5q0 -85 -44 -144.5t-126 -78.5q-39 -9 -119 -9h-103v-239h-133zM315 593h-100v-245h95q51 0 75 6q87 22 87 120q0 119 -157 119z" />
    <glyph glyph-name="Q" unicode="Q" horiz-adv-x="771" 
d="M780 98l-37 -126q-72 16 -150 87q-95 -77 -223 -77q-159 0 -249 108q-85 101 -85 263q0 161 86 262q91 109 249 109t250 -102q89 -97 89 -257q0 -134 -51 -215q13 -26 55 -42q32 -12 52 -12q4 0 14 2zM568 353q0 99 -49 167q-55 78 -150 78q-92 0 -145 -81
q-47 -70 -47 -167q0 -99 50 -167q55 -76 151 -76q93 0 145 80q45 68 45 166z" />
    <glyph glyph-name="R" unicode="R" horiz-adv-x="646" 
d="M81 0v706h225q84 0 122 -7q55 -10 97 -44q78 -63 78 -174q0 -70 -36.5 -122t-102.5 -72l157 -287h-151l-140 262h-118v-262h-131zM273 592h-61v-221h46q37 0 87 2q124 5 124 109q0 67 -56 95q-30 15 -140 15z" />
    <glyph glyph-name="S" unicode="S" horiz-adv-x="667" 
d="M23 132l111 78q70 -107 219 -107q136 0 136 93q0 49 -53 70q-24 10 -82 22l-85 18q-57 12 -89 25q-119 48 -119 173q0 110 88 169q76 51 191 51q179 0 284 -143l-108 -81q-32 46 -58 66q-51 39 -125 39q-49 0 -86 -19q-47 -23 -47 -67q0 -40 41 -59q22 -10 89 -25l73 -16
q100 -22 150 -56q79 -54 79 -154q0 -115 -97 -176q-81 -51 -203 -51q-217 0 -309 150z" />
    <glyph glyph-name="T" unicode="T" 
d="M541 706v-120h-195v-586h-132v586h-191v120h518z" />
    <glyph glyph-name="U" unicode="U" horiz-adv-x="729" 
d="M516 706h133v-445q0 -76 -10 -111q-16 -56 -66 -99q-80 -69 -213 -69q-96 0 -164 36q-81 42 -106 126q-10 33 -10 141v421h132v-434q0 -63 9 -86q30 -76 143 -76q127 0 147 93q5 23 5 76v427z" />
    <glyph glyph-name="V" unicode="V" horiz-adv-x="604" 
d="M458 706h137l-201 -706h-178l-208 706h139l158 -557z" />
    <glyph glyph-name="W" unicode="W" horiz-adv-x="833" 
d="M687 706h136l-155 -706h-154l-99 491l-102 -491h-154l-147 706h135l96 -538l110 538h123l112 -538z" />
    <glyph glyph-name="X" unicode="X" horiz-adv-x="646" 
d="M599 706l-199 -323l239 -383h-151l-165 261l-161 -261h-153l237 383l-203 323h152l128 -202l122 202h154z" />
    <glyph glyph-name="Y" unicode="Y" horiz-adv-x="625" 
d="M614 706l-238 -427v-279h-130v279l-236 427h149l153 -293l155 293h147z" />
    <glyph glyph-name="Z" unicode="Z" horiz-adv-x="604" 
d="M204 119h371v-119h-551v108l386 479h-353v119h518v-113z" />
    <glyph glyph-name="bracketleft" unicode="[" horiz-adv-x="354" 
d="M326 759v-96h-135v-624h135v-97h-266v817h266z" />
    <glyph glyph-name="backslash" unicode="\" horiz-adv-x="479" 
d="M467 0h-118l-336 706h119z" />
    <glyph glyph-name="bracketright" unicode="]" horiz-adv-x="354" 
d="M26 -58v96h135v623h-135v98h266v-817h-266z" />
    <glyph glyph-name="asciicircum" unicode="^" horiz-adv-x="667" 
d="M383 706l187 -382h-118l-116 245l-122 -245h-117l195 382h91z" />
    <glyph glyph-name="underscore" unicode="_" horiz-adv-x="500" 
d="M510 -75v-50h-520v50h520z" />
    <glyph glyph-name="grave" unicode="`" horiz-adv-x="271" 
d="M36 707h147l52 -134h-89z" />
    <glyph glyph-name="a" unicode="a" horiz-adv-x="542" 
d="M172 346l-123 7q4 46 20 75q48 87 199 87q171 0 202 -94q8 -24 8 -75v-265q0 -52 22 -81h-142q-3 36 -3 39q-60 -51 -148 -51q-75 0 -126 40q-55 43 -55 116q0 130 177 165q106 21 155 37q0 76 -85 76q-64 0 -89 -32q-12 -15 -12 -44zM358 194v55q-40 -20 -105 -30
q-46 -7 -66 -17q-34 -17 -34 -52q0 -59 81 -59q35 0 67 14q37 16 50 44q7 15 7 45z" />
    <glyph glyph-name="b" unicode="b" horiz-adv-x="583" 
d="M64 706h119v-248q62 57 145 57q100 0 162 -84q57 -76 57 -179q0 -107 -59 -183q-64 -84 -168 -84q-79 0 -137 67v-52h-119v706zM423 254q2 61 -30 104q-35 48 -94 48q-58 0 -90 -47q-28 -40 -28 -101q0 -33 8 -64q25 -95 115 -95q60 0 91 50q26 41 28 105z" />
    <glyph glyph-name="c" unicode="c" horiz-adv-x="500" 
d="M492 373l-107 -50q-11 39 -42 62t-71 23q-61 0 -95 -49q-29 -42 -29 -106t30 -107q34 -49 96 -49q83 0 120 98l103 -54q-26 -72 -87 -114t-138 -42q-112 0 -181 78q-67 74 -67 187q0 116 68.5 190.5t183.5 74.5q153 0 216 -142z" />
    <glyph glyph-name="d" unicode="d" horiz-adv-x="583" 
d="M397 706h119v-706h-119v48q-52 -63 -139 -63q-106 0 -166 76q-56 70 -56 178q0 113 56 190q62 86 171 86q83 0 134 -56v247zM396 247q-2 157 -115 157q-60 0 -92 -48q-28 -41 -28 -104q0 -44 15 -83q29 -76 103 -76q60 0 91 49q27 42 26 105z" />
    <glyph glyph-name="e" unicode="e" 
d="M433 171l102 -59q-95 -127 -244 -127q-119 0 -188 73.5t-69 193.5q0 118 66 190.5t183 72.5q241 0 248 -289h-370q22 -124 142 -124q81 0 130 69zM165 314h234q-15 105 -112 105q-100 0 -122 -105z" />
    <glyph glyph-name="f" unicode="f" horiz-adv-x="313" 
d="M308 415h-109v-415h-120v415h-75v86h75v57q0 72 20 101q33 48 141 48q24 0 68 -4v-102q-15 3 -38 3q-47 0 -63 -25q-8 -12 -8 -37v-41h109v-86z" />
    <glyph glyph-name="g" unicode="g" horiz-adv-x="583" 
d="M401 500h119v-410q0 -84 -4 -112q-21 -145 -236 -145q-97 0 -149 31q-62 37 -81 126h132q19 -62 102 -62q71 0 99 40q18 25 18 115q-58 -54 -150 -54q-104 0 -162 69q-55 64 -55 170q0 126 78 193q62 54 147 54q90 0 142 -67v52zM404 266q1 62 -30 100q-34 42 -94 42
q-59 0 -91 -38.5t-32 -98.5t32.5 -96t91.5 -36q58 0 90 34t33 93z" />
    <glyph glyph-name="h" unicode="h" horiz-adv-x="583" 
d="M62 706h120v-257q66 66 159 66q65 0 112.5 -32t60.5 -93q6 -28 6 -81v-309h-118v275q0 51 -8 71q-22 55 -87 55q-41 0 -76 -26t-45 -65q-4 -15 -4 -80v-230h-120v706z" />
    <glyph glyph-name="i" unicode="i" horiz-adv-x="250" 
d="M65 699h119v-121h-119v121zM65 500h119v-500h-119v500z" />
    <glyph glyph-name="j" unicode="j" horiz-adv-x="250" 
d="M67 700h118v-121h-118v121zM67 501h119v-505q0 -66 -6 -84q-25 -74 -152 -74q-12 0 -27 1v110q60 0 65 39q1 8 1 56v457z" />
    <glyph glyph-name="k" unicode="k" horiz-adv-x="542" 
d="M64 706h119v-397l195 191h153l-191 -191l210 -309h-146l-151 224l-70 -69v-155h-119v706z" />
    <glyph glyph-name="l" unicode="l" horiz-adv-x="250" 
d="M65 706h121v-706h-121v706z" />
    <glyph glyph-name="m" unicode="m" horiz-adv-x="875" 
d="M64 0v500h119v-56q26 32 70.5 51.5t87.5 19.5q96 0 139 -77q55 77 160 77q64 0 109.5 -31t57.5 -91q4 -20 4 -78v-315h-119v276q0 60 -8 81q-17 45 -76 45q-111 0 -111 -167v-235h-119v279q0 49 -4 64q-16 59 -77 59q-60 0 -92 -58q-22 -40 -22 -135v-209h-119z" />
    <glyph glyph-name="n" unicode="n" 
d="M63 0v500h121v-59q14 21 39 39q50 35 115 35q87 0 131 -60q21 -28 27 -72q4 -29 4 -89v-294h-119v255q0 60 -4 76q-17 67 -82 67q-63 0 -92 -56q-19 -37 -19 -125v-217h-121z" />
    <glyph glyph-name="o" unicode="o" horiz-adv-x="583" 
d="M549 252q0 -118 -68 -191q-69 -76 -186 -76q-118 0 -189 74t-71 193q0 116 69.5 189.5t185.5 73.5t187.5 -73t71.5 -190zM423 254q-2 65 -35 107q-36 46 -99 46q-62 0 -97 -46q-32 -42 -32 -106q0 -66 34 -111q37 -49 101 -49q65 0 99 49q31 43 29 110z" />
    <glyph glyph-name="p" unicode="p" horiz-adv-x="583" 
d="M65 -163v663h119v-46q58 61 137 61q107 0 170 -84q57 -75 57 -186q0 -109 -58 -181q-63 -79 -169 -79q-76 0 -137 56v-204h-119zM183 253q-1 -63 28 -106q33 -49 94 -49t93 48q28 41 28 105q0 82 -48 121q-34 28 -75 28q-59 0 -91 -46q-28 -40 -29 -101z" />
    <glyph glyph-name="q" unicode="q" 
d="M389 500h119v-663h-119v210q-59 -62 -144 -62q-107 0 -166 79q-54 71 -54 181q0 108 58 185q63 85 168 85q90 0 138 -68v53zM390 249q-1 62 -30 103q-32 46 -92 46q-58 0 -91 -49q-29 -43 -29 -104q0 -63 28 -103q32 -47 92 -47q62 0 95 48q28 41 27 106z" />
    <glyph glyph-name="r" unicode="r" horiz-adv-x="354" 
d="M64 500h116v-71q49 85 160 82v-123q-31 -1 -50 -5q-85 -18 -103 -95q-7 -30 -7 -103v-185h-116v500z" />
    <glyph glyph-name="s" unicode="s" horiz-adv-x="521" 
d="M22 74l89 74q52 -64 144 -64q34 0 62 13q37 17 37 46q0 36 -71 49q-25 4 -98 18q-141 28 -141 142q0 79 70 124q60 39 144 39q94 0 165 -48q31 -21 51 -45l-85 -79q-39 76 -136 76q-83 0 -83 -51q0 -25 27 -38q19 -9 74 -19q86 -16 110 -22q106 -28 106 -133
q0 -83 -74 -130q-63 -41 -151 -41q-148 0 -240 89z" />
    <glyph glyph-name="t" unicode="t" horiz-adv-x="313" 
d="M304 414h-107v-226q0 -54 7 -68q10 -21 50 -21q30 0 50 6v-101q-48 -8 -87 -8q-109 0 -132 61q-8 21 -8 102v255h-73v86h73v177h120v-177h107v-86z" />
    <glyph glyph-name="u" unicode="u" horiz-adv-x="583" 
d="M397 500h120v-500h-120v51q-66 -63 -162 -63q-67 0 -111 31q-48 34 -58 98q-4 25 -4 94v289h121v-287q0 -37 4 -50q19 -63 93 -63q66 0 97 53q20 35 20 135v212z" />
    <glyph glyph-name="v" unicode="v" horiz-adv-x="479" 
d="M343 500h125l-164 -500h-129l-162 500h124l104 -344z" />
    <glyph glyph-name="w" unicode="w" horiz-adv-x="750" 
d="M521 158l89 342h125l-150 -500h-119l-90 319l-96 -319h-118l-145 500h125l87 -342l93 342h107z" />
    <glyph glyph-name="x" unicode="x" horiz-adv-x="500" 
d="M332 500h142l-151 -232l171 -268h-138l-104 158l-100 -158h-143l172 268l-152 232h141l82 -126z" />
    <glyph glyph-name="y" unicode="y" horiz-adv-x="479" 
d="M347 500h123l-155 -530q-21 -73 -54 -105q-39 -37 -110 -37q-30 0 -72 6v105q17 -3 32 -3q30 0 53 12q29 15 29 42l-181 510h129l111 -373z" />
    <glyph glyph-name="z" unicode="z" horiz-adv-x="500" 
d="M58 500h401v-93l-265 -301h265v-106h-428v92l270 301h-243v107z" />
    <glyph glyph-name="braceleft" unicode="{" horiz-adv-x="354" 
d="M41 316v63q23 7 33 13q29 18 37 68q4 25 4 80v36q0 64 4 89q15 94 99 112q37 8 132 9v-64q-31 -8 -45 -15q-40 -20 -52 -65q-7 -26 -7 -88l1 -1q0 -26 -2 -66q-3 -59 -21 -89q-22 -35 -74 -51q25 -9 31 -12q45 -22 59 -77q7 -28 7 -102v-16q0 -79 15 -109q20 -40 88 -59
v-63q-88 2 -123 8q-88 15 -105 97q-6 29 -6 91v92q0 60 -25 89q-15 17 -50 30z" />
    <glyph glyph-name="bar" unicode="|" horiz-adv-x="229" 
d="M166 750v-1000h-103v1000h103z" />
    <glyph glyph-name="braceright" unicode="}" horiz-adv-x="354" 
d="M313 379v-63q-24 -7 -33 -13q-41 -26 -41 -148v-36q0 -64 -4 -89q-15 -94 -98 -112q-37 -8 -133 -9v64q31 8 45 15q40 20 52 65q7 26 7 88l-1 1q0 26 2 66q3 59 21 89q22 35 74 51q-13 5 -31 12q-46 22 -59 77q-7 29 -7 102v16q0 79 -15 109q-20 40 -88 59v63
q88 -2 123 -8q88 -15 105 -97q6 -29 6 -91v-92q0 -60 25 -89q15 -17 50 -30z" />
    <glyph glyph-name="asciitilde" unicode="~" horiz-adv-x="667" 
d="M539 377v0l46 -89q-78 -81 -147 -81q-37 0 -103 32l-29 14q-48 23 -77 23q-28 0 -48 -15q-15 -11 -51 -53l-48 87q61 89 145 89q39 0 107 -32l34 -16q45 -21 73 -21q46 0 98 62z" />
    <glyph glyph-name="dagger" unicode="&#x2020;" horiz-adv-x="542" 
d="M503 366h-168v-410h-126v410h-169v112h169v228h126v-228h168v-112z" />
    <glyph glyph-name="cent" unicode="&#xa2;" horiz-adv-x="500" 
d="M234 621h79v-99q67 -8 112 -49q32 -29 64 -89l-106 -50q-26 66 -72 79v-308q62 18 80 93l103 -55q-10 -23 -43 -76q-55 -67 -140 -75v-100h-78v99q-44 7 -69 18q-47 21 -82 63q-60 73 -60 184q0 104 55.5 175t156.5 91v99zM233 109v305q-88 -42 -88 -152q0 -127 88 -153z
" />
    <glyph glyph-name="sterling" unicode="&#xa3;" horiz-adv-x="625" 
d="M465 232h129q2 -81 -23 -145q-37 -95 -130 -95q-49 0 -97 24l-46 23q-83 -47 -129 -47q-52 0 -86 31t-34 82t30.5 80.5t81.5 29.5q32 0 74 -14q2 10 2 17q0 34 -27 58h-131v106h80q-43 52 -43 120q0 102 86 154q64 39 143 39q122 0 182 -79q44 -58 39 -182h-130
q5 22 5 43q0 45 -27.5 76t-71.5 31q-40 0 -67 -26.5t-27 -66.5q0 -49 49 -109h124v-106h-78q7 -44 7 -72q0 -29 -7 -61q44 -29 69 -29q53 0 53 95v23zM210 106q-21 17 -39 17q-27 0 -27 -22t27 -22q26 0 39 27z" />
    <glyph glyph-name="section" unicode="&#xa7;" horiz-adv-x="646" 
d="M290 150l-67 29q-180 78 -180 197q0 89 106 149q-39 39 -39 88q0 74 64 113q53 33 131 33q129 0 235 -67l-56 -85q-114 52 -169 52q-71 0 -71 -35q0 -16 17 -27q10 -7 43 -21l92 -40q101 -44 143 -78q65 -53 65 -128q0 -109 -107 -160q41 -44 41 -92q0 -71 -68 -110
q-56 -33 -132 -33q-137 0 -247 79l58 82q96 -61 187 -61q67 0 67 41q0 23 -48 45q-16 7 -65 29zM256 455l-26 12q-11 -4 -34 -18q-26 -22 -26 -55q0 -47 86 -84q108 -47 141 -65l29 -16q44 35 44 79q0 37 -38 66q-19 15 -67 37q-37 18 -46 20q-28 8 -63 24z" />
    <glyph glyph-name="bullet" unicode="&#x2022;" horiz-adv-x="333" 
d="M24 352q0 59 41.5 100.5t100.5 41.5t100.5 -41.5t41.5 -100.5t-41.5 -100.5t-100.5 -41.5q-58 0 -100 42t-42 100z" />
    <glyph glyph-name="paragraph" unicode="&#xb6;" horiz-adv-x="667" 
d="M309 706h240v-66h-35v-807h-71v807h-131v-807h-71v473q-156 37 -156 193q0 98 64 154q60 53 160 53z" />
    <glyph glyph-name="germandbls" unicode="&#xdf;" 
d="M65 0v493q0 56 3 76q11 73 75 113q56 36 134 36q89 0 152 -44q72 -49 72 -134q0 -98 -90 -128q17 -8 50 -28q66 -52 66 -166q0 -101 -50 -161q-53 -65 -152 -65q-55 0 -96 15v116q37 -22 68 -22q48 0 77 40q26 36 26 86q0 146 -171 137v90q24 -2 32 -2q43 0 73.5 21.5
t30.5 62.5q0 36 -24 55t-61 19q-77 0 -90 -66q-4 -20 -4 -70v-474h-121z" />
    <glyph glyph-name="acute" unicode="&#xb4;" horiz-adv-x="271" 
d="M86 706h148l-108 -133h-90z" />
    <glyph glyph-name="dieresis" unicode="&#xa8;" horiz-adv-x="271" 
d="M-22 706h113v-119h-113v119zM179 706h113v-119h-113v119z" />
    <glyph glyph-name="AE" unicode="&#xc6;" horiz-adv-x="1042" 
d="M635 304v-184h383v-120h-516v165h-248l-94 -165h-154l418 706h579v-119h-368v-167h320v-116h-320zM322 284h180v322z" />
    <glyph glyph-name="Oslash" unicode="&#xd8;" horiz-adv-x="771" 
d="M620 628l62 55l59 -67l-67 -59q53 -93 53 -206q0 -146 -83 -250q-95 -119 -259 -119q-143 0 -241 107l-63 -57l-57 66l70 62q-48 81 -48 189q0 164 89 266q94 109 255 109q129 0 230 -96zM200 255l325 290q-60 60 -135 60q-97 0 -156 -74q-55 -68 -55 -167q0 -65 21 -109
zM571 466l-327 -289q48 -74 141 -74q97 0 155 74q54 68 54 168q0 68 -23 121z" />
    <glyph glyph-name="yen" unicode="&#xa5;" horiz-adv-x="604" 
d="M301 401l153 285h147l-145 -256h84v-99h-142l-34 -61h176v-99h-176v-171h-129v171h-177v99h176l-31 61h-145v99h89l-144 256h149z" />
    <glyph glyph-name="ordfeminine" unicode="&#xaa;" horiz-adv-x="333" 
d="M290 636v-170q0 -20 12 -40h-68q-6 13 -7 22q-44 -28 -90 -28q-42 0 -70 24.5t-28 65.5q0 45 38 68q22 13 77 24q21 4 68 17q3 42 -47 42q-53 0 -53 -41l-70 5q11 89 123 89q56 0 88 -23q23 -16 27 -55zM221 536v24q-16 -5 -54 -13q-55 -12 -55 -37q0 -29 40 -29
q69 0 69 55z" />
    <glyph glyph-name="ordmasculine" unicode="&#xba;" horiz-adv-x="333" 
d="M309 563q-1 -66 -40 -107t-104 -41q-63 0 -102 42.5t-39 106.5q0 66 39 108t104 42q66 0 104.5 -42t37.5 -109zM97 565q-1 -36 16 -60q19 -27 53 -27q35 0 55 28q17 24 17 61q0 34 -18 59.5t-51 25.5q-34 0 -52.5 -25.5t-19.5 -61.5z" />
    <glyph glyph-name="ae" unicode="&#xe6;" horiz-adv-x="875" 
d="M169 347h-116q18 168 206 168q74 0 119 -22q27 -13 56 -44q70 66 162 66q125 0 190 -84q58 -75 60 -204h-365q4 -61 39 -98t95 -37q44 0 77 23q17 12 44 45l96 -59q-92 -116 -235 -116q-103 0 -185 74q-89 -74 -196 -74q-79 0 -129 35q-58 40 -58 116q0 83 76 127
q40 23 137 45l84 19q16 4 38 13q-3 88 -94 88q-96 0 -101 -81zM482 313h222q-20 105 -112 105q-47 0 -76.5 -29t-33.5 -76zM364 240q-33 -14 -123 -32q-85 -17 -85 -69q0 -33 27 -51q23 -15 58 -15q82 0 110 69q9 22 13 98z" />
    <glyph glyph-name="oslash" unicode="&#xf8;" horiz-adv-x="583" 
d="M469 447l51 41l45 -56l-55 -44q37 -68 37 -140q0 -120 -71.5 -191.5t-191.5 -71.5q-64 0 -109 23q-31 16 -68 54l-54 -42l-44 59l57 44q-36 59 -36 130q0 116 72 189t188 73q103 0 179 -68zM156 196l225 180q-33 41 -93 41q-48 0 -85 -30q-54 -43 -54 -133q0 -28 7 -58z
M417 313l-224 -180q39 -49 99 -49q65 0 103 49q35 44 35 111q0 39 -13 69z" />
    <glyph glyph-name="questiondown" unicode="&#xbf;" 
d="M387 234l121 -15q-7 -109 -70.5 -170t-172.5 -61q-102 0 -167 52q-71 56 -71 156q0 96 81 159q65 51 70 56q28 30 28 85q0 13 -2 29h117q0 -86 -5 -113q-11 -59 -55 -94q-21 -13 -50 -34q-47 -33 -47 -86q0 -43 32 -69.5t76 -26.5q55 0 86 40q27 35 29 92zM328 569h-133
v137h133v-137z" />
    <glyph glyph-name="exclamdown" unicode="&#xa1;" horiz-adv-x="250" 
d="M40 271l38 260h56l37 -260v-271h-131v271zM171 568h-131v138h131v-138z" />
    <glyph glyph-name="florin" unicode="&#x192;" horiz-adv-x="437" 
d="M394 474l-9 -85h-104l-46 -389q-12 -105 -37 -136q-34 -43 -106 -43q-32 0 -77 10l13 106q18 -5 35 -5q31 0 41 33q3 11 9 58l43 366h-78l10 85h78l8 69q5 45 17 72q31 71 146 71q36 0 81 -6l-11 -101q-30 2 -39 2q-42 0 -59 -21q-12 -16 -16 -61l-2 -25h103z" />
    <glyph glyph-name="guillemotleft" unicode="&#xab;" horiz-adv-x="437" 
d="M201 132l-142 112v141l142 114v-114l-86 -71l86 -70v-112zM383 132l-142 112v141l142 114v-114l-86 -71l86 -70v-112z" />
    <glyph glyph-name="guillemotright" unicode="&#xbb;" horiz-adv-x="437" 
d="M235 499l142 -112v-141l-142 -114v114l86 71l-86 70v112zM53 499l142 -112v-141l-142 -114v114l86 71l-86 70v112z" />
    <glyph glyph-name="ellipsis" unicode="&#x2026;" horiz-adv-x="1000" 
d="M767 137h132v-137h-132v137zM434 137h132v-137h-132v137zM101 137h132v-137h-132v137z" />
    <glyph glyph-name="OE" unicode="&#x152;" horiz-adv-x="1104" 
d="M682 417h325v-114h-325v-184h395v-119h-526v25q-83 -43 -172 -43q-152 0 -244 104q-88 99 -88 253q0 178 110 287q99 98 233 98q82 0 161 -48v30h503v-120h-372v-169zM551 188v266q0 58 -10 75q-42 70 -145 70t-159 -80q-50 -70 -50 -177q0 -105 54 -171q58 -72 160 -72
q70 0 115 36q35 28 35 53z" />
    <glyph glyph-name="oe" unicode="&#x153;" horiz-adv-x="917" 
d="M777 160l97 -59q-20 -29 -51 -55q-73 -61 -174 -61q-122 0 -184 90q-66 -90 -186 -90q-115 0 -181 73q-64 70 -64 187q0 116 66 191q69 79 183 79q103 0 177 -75q84 75 176 75q125 0 195 -98q48 -67 54 -196h-359q19 -129 130 -129q75 0 121 68zM526 307h220
q-20 104 -111 104q-92 0 -109 -104zM411 246q0 65 -32 108q-36 49 -98 49q-61 0 -95 -48q-31 -43 -31 -106q0 -65 31 -107q35 -48 97 -48q63 0 97 46q31 41 31 106z" />
    <glyph glyph-name="endash" unicode="&#x2013;" 
d="M42 369h478v-111h-478v111z" />
    <glyph glyph-name="emdash" unicode="&#x2014;" horiz-adv-x="708" 
d="M42 369h624v-111h-624v111z" />
    <glyph glyph-name="quotedblleft" unicode="&#x201c;" horiz-adv-x="375" 
d="M167 436h-130v123q0 44 3 63q11 72 120 89v-53q-36 -12 -47 -33q-7 -14 -7 -51h61v-138zM338 436h-130v123q0 44 3 63q11 72 120 89v-53q-36 -12 -47 -33q-7 -14 -7 -51h61v-138z" />
    <glyph glyph-name="quotedblright" unicode="&#x201d;" horiz-adv-x="375" 
d="M208 706h130v-123q0 -43 -3 -63q-11 -72 -120 -89v53q36 12 47 33q7 14 7 51h-61v138zM37 706h130v-123q0 -43 -3 -63q-11 -72 -120 -89v53q36 12 47 33q7 14 7 51h-61v138z" />
    <glyph glyph-name="quoteleft" unicode="&#x2018;" horiz-adv-x="208" 
d="M169 433h-133v121q0 57 6 75q20 59 119 80v-59q-57 -9 -54 -80h62v-137z" />
    <glyph glyph-name="quoteright" unicode="&#x2019;" horiz-adv-x="208" 
d="M40 706h130v-124q0 -43 -3 -63q-6 -40 -44 -64q-32 -21 -76 -24v53q37 11 47 33q7 15 7 50h-61v139z" />
    <glyph glyph-name="fraction" unicode="&#x2044;" horiz-adv-x="125" 
d="M-145 24l375 690l46 -24l-377 -690z" />
    <glyph glyph-name="currency" unicode="&#xa4;" horiz-adv-x="750" 
d="M710 590l-49 -104q-66 99 -206 99q-157 0 -200 -120h396l-48 -100h-366q-2 -20 -2 -34q0 -11 2 -31h335l-47 -100h-260q19 -55 79 -85q54 -27 116 -27q128 0 200 82v-120q-37 -30 -102 -47q-57 -15 -113 -15q-113 0 -194 53q-85 55 -121 159h-125l50 100h51q-1 14 -1 32
q0 19 1 33h-101l50 100h75q30 107 126 166q87 54 204 54q155 0 250 -95z" />
    <glyph glyph-name="guilsinglleft" unicode="&#x2039;" horiz-adv-x="250" 
d="M198 132l-142 112v141l142 114v-114l-86 -71l86 -70v-112z" />
    <glyph glyph-name="guilsinglright" unicode="&#x203a;" horiz-adv-x="250" 
d="M50 496l142 -113v-141l-142 -113v113l86 72l-86 69v113z" />
    <glyph glyph-name="fi" unicode="&#xf001;" 
d="M308 415h-109v-415h-120v415h-75v86h75v57q0 72 20 101q33 48 141 48q24 0 68 -4v-102q-15 3 -38 3q-40 0 -55.5 -16.5t-15.5 -57.5v-29h109v-86zM378 700h119v-121h-119v121zM378 501h119v-501h-119v501z" />
    <glyph glyph-name="fl" unicode="&#xf002;" 
d="M308 415h-109v-415h-120v415h-75v86h75v57q0 72 20 101q33 48 141 48q24 0 68 -4v-102q-15 3 -38 3q-40 0 -55.5 -16.5t-15.5 -57.5v-29h109v-86zM378 707h121v-707h-121v707z" />
    <glyph glyph-name="daggerdbl" unicode="&#x2021;" horiz-adv-x="500" 
d="M192 707h119v-177h161v-103h-162v-197h159v-101h-161v-176h-118v176h-161v101h163v198h-163v102h163v177z" />
    <glyph glyph-name="periodcentered" unicode="&#xb7;" horiz-adv-x="208" 
d="M37 383h132v-137h-132v137z" />
    <glyph glyph-name="periodcentered" unicode="&#x2219;" horiz-adv-x="208" 
d="M37 383h132v-137h-132v137z" />
    <glyph glyph-name="quotesinglbase" unicode="&#x201a;" horiz-adv-x="208" 
d="M39 139h130v-124q0 -43 -3 -63q-6 -40 -44 -64q-32 -21 -76 -24v53q37 11 47 33q7 15 7 50h-61v139z" />
    <glyph glyph-name="quotedblbase" unicode="&#x201e;" horiz-adv-x="375" 
d="M207 139h130v-124q0 -43 -3 -63q-6 -40 -44 -64q-32 -21 -76 -24v53q37 11 47 33q7 15 7 50h-61v139zM37 139h130v-124q0 -43 -3 -63q-6 -40 -44 -64q-32 -21 -76 -24v53q37 11 47 33q7 15 7 50h-61v139z" />
    <glyph glyph-name="perthousand" unicode="&#x2030;" horiz-adv-x="1250" 
d="M849 223q1 -79 -17 -126q-40 -104 -146 -104q-162 0 -162 232q0 95 34 152q42 72 131 72q45 0 80 -22q78 -50 80 -204zM759 220q0 152 -72 152q-56 0 -68 -82q-5 -34 -5 -74q0 -145 72 -145q73 0 73 149zM238 -5l315 683l68 -32l-314 -682zM351 458q1 -78 -15 -123
q-39 -110 -149 -110q-161 0 -161 227q0 97 33 155q42 74 132 74q157 0 160 -223zM261 457q0 148 -72 148q-73 0 -73 -157q0 -145 74 -145q46 0 62 57q9 32 9 97zM1225 229v-10q0 -226 -165 -226q-161 0 -161 219q0 237 165 237q161 0 161 -220zM990 224q0 -64 9 -96
q16 -57 63 -57q73 0 73 147q0 155 -72 155q-73 0 -73 -149z" />
    <glyph glyph-name="dotlessi" unicode="&#x131;" horiz-adv-x="250" 
d="M65 500h119v-500h-119v500z" />
    <glyph glyph-name="circumflex" unicode="&#x2c6;" horiz-adv-x="271" 
d="M77 706h118l111 -134h-122l-47 67l-50 -67h-121z" />
    <glyph glyph-name="tilde" unicode="&#x2dc;" horiz-adv-x="271" 
d="M238 706v0h77l-8 -44q-17 -79 -92 -79q-26 0 -87 23q-42 16 -58 16q-28 0 -36 -38h-78q5 51 29 85q28 41 75 41q30 0 71 -16q54 -21 70 -21q26 0 37 33z" />
    <glyph glyph-name="macron" unicode="&#xaf;" horiz-adv-x="271" 
d="M-35 586v91h341v-91h-341z" />
    <glyph glyph-name="macron" unicode="&#x2c9;" horiz-adv-x="271" 
d="M-35 586v91h341v-91h-341z" />
    <glyph glyph-name="breve" unicode="&#x2d8;" horiz-adv-x="271" 
d="M197 706h86q-34 -131 -151 -131q-113 0 -143 131h88q12 -53 60 -53q49 0 60 53z" />
    <glyph glyph-name="dotaccent" unicode="&#x2d9;" horiz-adv-x="271" 
d="M68 586v121h134v-121h-134z" />
    <glyph glyph-name="ring" unicode="&#x2da;" horiz-adv-x="271" 
d="M34 662q0 42 30 72t72 30t72 -30t30 -72t-30 -72t-72 -30t-72 30t-30 72zM94 662q0 -17 12.5 -29.5t29.5 -12.5t29.5 12.5t12.5 29.5t-12.5 29.5t-29.5 12.5t-29.5 -12.5t-12.5 -29.5z" />
    <glyph glyph-name="cedilla" unicode="&#xb8;" horiz-adv-x="271" 
d="M135 12h45l-45 -58q37 3 66 -11q35 -17 35 -52q0 -78 -154 -78q-20 0 -42 2v31q7 -2 16 -2q64 0 64 26q0 25 -65 25q-13 0 -21 -1v14z" />
    <glyph glyph-name="hungarumlaut" unicode="&#x2dd;" horiz-adv-x="271" 
d="M-43 574l52 132h133l-96 -132h-89zM129 574l53 132h132l-96 -132h-89z" />
    <glyph glyph-name="ogonek" unicode="&#x2db;" horiz-adv-x="271" 
d="M108 6h83l-24 -28q-23 -27 -23 -51q0 -32 46 -32h36v-92h-74q-43 0 -66 12q-42 22 -42 70q0 46 64 121z" />
    <glyph glyph-name="caron" unicode="&#x2c7;" horiz-adv-x="271" 
d="M193 572h-115l-112 135h121l48 -64l50 64h120z" />
    <glyph glyph-name="Lslash" unicode="&#x141;" horiz-adv-x="521" 
d="M215 293v-173h280v-120h-413v145l-54 -60v132l54 62v428h133v-277l138 155v-136z" />
    <glyph glyph-name="lslash" unicode="&#x142;" horiz-adv-x="250" 
d="M65 706h121v-158l50 53v-114l-50 -56v-431h-121v295l-53 -57v113l53 60v295z" />
    <glyph glyph-name="Eth" unicode="&#xd0;" horiz-adv-x="708" 
d="M71 416v290h232q88 0 131 -10q117 -27 179 -130q56 -92 56 -219q0 -121 -49 -206q-56 -97 -165 -126q-57 -15 -178 -15h-206v326h-68v90h68zM203 586v-171h154v-90h-154v-206h56q123 0 165 16q105 40 105 211q0 104 -43 166q-50 72 -150 73z" />
    <glyph glyph-name="eth" unicode="&#xf0;" horiz-adv-x="583" 
d="M522 631l-77 -21q105 -157 105 -328q0 -97 -32 -162q-66 -134 -221 -134q-137 0 -207 94q-55 73 -55 175q0 109 65 183q67 78 175 78q59 0 102 -37q-12 51 -49 99l-164 -44l-19 53l143 39l-47 47l112 48q27 -27 56 -62l93 25zM424 254q-2 64 -35 106q-37 47 -99 47
q-61 0 -97 -46q-33 -42 -33 -105q0 -67 34 -111q37 -49 102 -49q64 0 99 49q31 43 29 109z" />
    <glyph glyph-name="Scaron" unicode="&#x160;" horiz-adv-x="667" 
d="M23 132l111 78q70 -107 219 -107q136 0 136 93q0 49 -53 70q-24 10 -82 22l-85 18q-57 12 -89 25q-119 48 -119 173q0 110 88 169q76 51 191 51q179 0 284 -143l-108 -81q-32 46 -58 66q-51 39 -125 39q-49 0 -86 -19q-47 -23 -47 -67q0 -40 41 -59q22 -10 89 -25l73 -16
q100 -22 150 -56q79 -54 79 -154q0 -115 -97 -176q-81 -51 -203 -51q-217 0 -309 150zM394 772h-118l-104 123h119l43 -56l42 56h118z" />
    <glyph glyph-name="scaron" unicode="&#x161;" horiz-adv-x="521" 
d="M22 74l89 74q52 -64 144 -64q34 0 62 13q37 17 37 46q0 36 -71 49q-25 4 -98 18q-141 28 -141 142q0 79 70 124q60 39 144 39q94 0 165 -48q31 -21 51 -45l-85 -79q-39 76 -136 76q-83 0 -83 -51q0 -25 27 -38q19 -9 74 -19q86 -16 110 -22q106 -28 106 -133
q0 -83 -74 -130q-63 -41 -151 -41q-148 0 -240 89zM319 572h-115l-112 135h121l48 -64l50 64h120z" />
    <glyph glyph-name="Yacute" unicode="&#xdd;" horiz-adv-x="625" 
d="M614 706l-238 -427v-279h-130v279l-236 427h149l153 -293l155 293h147zM257 775l53 120h143l-107 -120h-89z" />
    <glyph glyph-name="yacute" unicode="&#xfd;" horiz-adv-x="479" 
d="M347 500h123l-155 -530q-21 -73 -54 -105q-39 -37 -110 -37q-30 0 -72 6v105q17 -3 32 -3q30 0 53 12q29 15 29 42l-181 510h129l111 -373zM237 706h148l-108 -133h-90z" />
    <glyph glyph-name="HT" horiz-adv-x="271" 
 />
    <glyph glyph-name="Thorn" unicode="&#xde;" horiz-adv-x="625" 
d="M82 0v706h133v-100h105q81 0 121 -11q79 -22 122.5 -81.5t43.5 -142.5q0 -85 -44 -144.5t-126 -78.5q-39 -9 -119 -9h-103v-139h-133zM315 493h-100v-245h95q51 0 75 6q87 22 87 120q0 119 -157 119z" />
    <glyph glyph-name="thorn" unicode="&#xfe;" horiz-adv-x="583" 
d="M65 -163v869h119v-252q58 61 137 61q107 0 170 -84q57 -75 57 -186q0 -106 -59 -180q-63 -80 -167 -80q-77 0 -138 56v-204h-119zM183 253q-1 -63 28 -106q33 -49 94 -49t93 48q28 41 28 105q0 82 -48 121q-34 28 -75 28q-59 0 -91 -46q-28 -40 -29 -101z" />
    <glyph glyph-name="nonmarkingreturn" horiz-adv-x="271" 
 />
    <glyph glyph-name="Zcaron" unicode="&#x17d;" horiz-adv-x="604" 
d="M204 119h371v-119h-551v108l386 479h-353v119h518v-113zM363 772h-118l-104 123h119l43 -56l42 56h118z" />
    <glyph glyph-name="zcaron" unicode="&#x17e;" horiz-adv-x="500" 
d="M58 500h401v-93l-265 -301h265v-106h-428v92l270 301h-243v107zM310 572h-115l-112 135h121l48 -64l50 64h120z" />
    <glyph glyph-name="onehalf" unicode="&#xbd;" horiz-adv-x="875" 
d="M65 535v59l21 1q90 4 101 85h70v-448h-84v275q0 19 -15 24q-7 3 -30 3zM537 0v66q199 146 199 242q0 62 -56 62q-35 0 -47 -29q-8 -19 -12 -72l-86 7q5 64 16 90q35 83 135 83q65 0 104 -36.5t39 -100.5q0 -65 -47 -122q-32 -39 -131 -119h187v-71h-301zM230 -5l315 683
l67 -32l-313 -683z" />
    <glyph glyph-name="onequarter" unicode="&#xbc;" horiz-adv-x="875" 
d="M65 535v59l21 1q90 4 101 85h70v-447h-84v274q0 19 -15 24q-7 3 -30 3zM522 164l194 277h83v-270h56v-71h-59v-100h-80v101h-194v63zM612 172h107l2 169zM238 -5l315 683l68 -32l-314 -683z" />
    <glyph glyph-name="onesuperior" unicode="&#xb9;" horiz-adv-x="375" 
d="M65 535v59l21 1q90 4 101 85h70v-447h-84v274q0 19 -15 24q-7 3 -30 3z" />
    <glyph glyph-name="threequarters" unicode="&#xbe;" horiz-adv-x="875" 
d="M145 502h27q66 0 66 49q0 54 -57 54q-34 0 -50 -26q-8 -13 -14 -48l-85 20q26 130 155 130q58 0 97 -31q43 -34 43 -90q0 -66 -71 -91q36 -14 52 -28q28 -25 28 -75q0 -68 -46 -106q-42 -35 -112 -35q-152 0 -157 155h87q7 -82 71 -82q31 0 49.5 19.5t18.5 50.5
q0 63 -74 63h-28v71zM522 164l193 278h83v-271h56v-71h-58v-100h-80v101h-194v63zM611 172h107l2 169zM262 -5l314 682l68 -31l-313 -683z" />
    <glyph glyph-name="threesuperior" unicode="&#xb3;" horiz-adv-x="375" 
d="M145 502h27q66 0 66 49q0 54 -57 54q-34 0 -50 -26q-8 -13 -14 -48l-85 20q26 130 155 130q58 0 97 -31q43 -34 43 -90q0 -66 -71 -91q36 -14 52 -28q28 -25 28 -75q0 -68 -46 -106q-42 -35 -112 -35q-152 0 -157 155h87q7 -82 71 -82q31 0 49.5 19.5t18.5 50.5
q0 63 -74 63h-28v71z" />
    <glyph glyph-name="twosuperior" unicode="&#xb2;" horiz-adv-x="375" 
d="M37 232v66q199 146 199 242q0 62 -56 62q-35 0 -47 -29q-8 -19 -12 -72l-86 7q5 64 16 90q35 83 135 83q65 0 104 -36.5t39 -100.5q0 -65 -47 -122q-32 -39 -131 -119h187v-71h-301z" />
    <glyph glyph-name="brokenbar" unicode="&#xa6;" horiz-adv-x="229" 
d="M63 -175v350h103v-350h-103zM166 325h-103v350h103v-350z" />
    <glyph glyph-name="minus" unicode="&#xad;" horiz-adv-x="667" 
d="M667 345v-103h-667v103h667z" />
    <glyph glyph-name="minus" unicode="&#x2212;" horiz-adv-x="667" 
d="M667 345v-103h-667v103h667z" />
    <glyph glyph-name="multiply" unicode="&#xd7;" horiz-adv-x="667" 
d="M599 100l-75 -74l-191 192l-191 -192l-74 74l191 192l-191 192l74 74l191 -192l191 192l75 -74l-192 -192z" />
    <glyph glyph-name="Adieresis" unicode="&#xc4;" horiz-adv-x="646" 
d="M495 0l-41 138h-265l-41 -138h-141l238 706h150l241 -706h-141zM224 253h195l-97 325zM171 895h112v-123h-112v123zM371 895h114v-123h-114v123z" />
    <glyph glyph-name="Aring" unicode="&#xc5;" horiz-adv-x="646" 
d="M495 0l-41 138h-265l-41 -138h-141l238 706h150l241 -706h-141zM224 253h195l-97 325zM326 963q43 0 72.5 -29t29.5 -72t-29.5 -72.5t-72.5 -29.5q-42 0 -71.5 30t-29.5 72t29.5 71.5t71.5 29.5zM326 903q-17 0 -29.5 -12t-12.5 -29q0 -18 12 -30t30 -12t30 12t12 30
q0 41 -42 41z" />
    <glyph glyph-name="Ccedilla" unicode="&#xc7;" horiz-adv-x="688" 
d="M259 -92l75 77q-75 13 -113 30q-63 28 -109 89q-75 99 -75 251q0 162 85 262q90 107 250 107q220 0 287 -218l-131 -35q-19 132 -153 132q-96 0 -149 -78q-46 -67 -46 -168q0 -104 45 -171q52 -79 151 -79q82 0 135 70q20 27 37 72l124 -52q-58 -145 -172 -188
q-37 -14 -117 -24l-23 -31q37 3 66 -11q35 -17 35 -52q0 -77 -154 -77q-20 0 -42 2v31q7 -2 16 -2q64 0 64 26q0 24 -65 24q-13 0 -21 -1v14z" />
    <glyph glyph-name="Eacute" unicode="&#xc9;" horiz-adv-x="625" 
d="M580 588h-372v-166h340v-114h-340v-189h397v-119h-527v706h502v-118zM257 775l53 120h143l-107 -120h-89z" />
    <glyph glyph-name="Ntilde" unicode="&#xd1;" horiz-adv-x="708" 
d="M513 207l-16 499h130v-706h-115l-309 495l8 -495h-129v706h119zM461 895h78q-5 -51 -27 -85q-27 -42 -74 -42q-24 0 -74.5 19.5t-70.5 19.5q-28 0 -36 -38h-78q5 51 29 85q28 41 75 41q31 0 72 -17q51 -21 69 -21q28 0 37 38z" />
    <glyph glyph-name="Odieresis" unicode="&#xd6;" horiz-adv-x="771" 
d="M725 353q-1 -161 -89 -263q-92 -108 -251 -108q-154 0 -248 109q-89 104 -89 261q0 159 89 262q94 110 250 110q157 0 250 -109q89 -103 88 -262zM593 338q2 108 -47 181q-56 84 -160 84q-98 0 -153 -76q-49 -67 -49 -169q0 -106 48 -175q55 -79 157 -79q96 0 151 71
q51 64 53 163zM230 895h112v-123h-112v123zM430 895h114v-123h-114v123z" />
    <glyph glyph-name="Udieresis" unicode="&#xdc;" horiz-adv-x="729" 
d="M516 706h133v-445q0 -76 -10 -111q-16 -56 -66 -99q-80 -69 -213 -69q-96 0 -164 36q-81 42 -106 126q-10 33 -10 141v421h132v-434q0 -63 9 -86q30 -76 143 -76q127 0 147 93q5 23 5 76v427zM208 895h112v-123h-112v123zM408 895h114v-123h-114v123z" />
    <glyph glyph-name="aacute" unicode="&#xe1;" horiz-adv-x="542" 
d="M172 346l-123 7q4 46 20 75q48 87 199 87q171 0 202 -94q8 -24 8 -75v-265q0 -52 22 -81h-142q-3 36 -3 39q-60 -51 -148 -51q-75 0 -126 40q-55 43 -55 116q0 130 177 165q106 21 155 37q0 76 -85 76q-64 0 -89 -32q-12 -15 -12 -44zM358 194v55q-40 -20 -105 -30
q-46 -7 -66 -17q-34 -17 -34 -52q0 -59 81 -59q35 0 67 14q37 16 50 44q7 15 7 45zM270 706h148l-108 -133h-90z" />
    <glyph glyph-name="agrave" unicode="&#xe0;" horiz-adv-x="542" 
d="M172 346l-123 7q4 46 20 75q48 87 199 87q171 0 202 -94q8 -24 8 -75v-265q0 -52 22 -81h-142q-3 36 -3 39q-60 -51 -148 -51q-75 0 -126 40q-55 43 -55 116q0 130 177 165q106 21 155 37q0 76 -85 76q-64 0 -89 -32q-12 -15 -12 -44zM358 194v55q-40 -20 -105 -30
q-46 -7 -66 -17q-34 -17 -34 -52q0 -59 81 -59q35 0 67 14q37 16 50 44q7 15 7 45zM165 707h147l52 -134h-89z" />
    <glyph glyph-name="acircumflex" unicode="&#xe2;" horiz-adv-x="542" 
d="M172 346l-123 7q4 46 20 75q48 87 199 87q171 0 202 -94q8 -24 8 -75v-265q0 -52 22 -81h-142q-3 36 -3 39q-60 -51 -148 -51q-75 0 -126 40q-55 43 -55 116q0 130 177 165q106 21 155 37q0 76 -85 76q-64 0 -89 -32q-12 -15 -12 -44zM358 194v55q-40 -20 -105 -30
q-46 -7 -66 -17q-34 -17 -34 -52q0 -59 81 -59q35 0 67 14q37 16 50 44q7 15 7 45zM213 706h118l111 -134h-122l-47 67l-50 -67h-121z" />
    <glyph glyph-name="adieresis" unicode="&#xe4;" horiz-adv-x="542" 
d="M172 346l-123 7q4 46 20 75q48 87 199 87q171 0 202 -94q8 -24 8 -75v-265q0 -52 22 -81h-142q-3 36 -3 39q-60 -51 -148 -51q-75 0 -126 40q-55 43 -55 116q0 130 177 165q106 21 155 37q0 76 -85 76q-64 0 -89 -32q-12 -15 -12 -44zM358 194v55q-40 -20 -105 -30
q-46 -7 -66 -17q-34 -17 -34 -52q0 -59 81 -59q35 0 67 14q37 16 50 44q7 15 7 45zM107 706h113v-119h-113v119zM308 706h113v-119h-113v119z" />
    <glyph glyph-name="atilde" unicode="&#xe3;" horiz-adv-x="542" 
d="M172 346l-123 7q4 46 20 75q48 87 199 87q171 0 202 -94q8 -24 8 -75v-265q0 -52 22 -81h-142q-3 36 -3 39q-60 -51 -148 -51q-75 0 -126 40q-55 43 -55 116q0 130 177 165q106 21 155 37q0 76 -85 76q-64 0 -89 -32q-12 -15 -12 -44zM358 194v55q-40 -20 -105 -30
q-46 -7 -66 -17q-34 -17 -34 -52q0 -59 81 -59q35 0 67 14q37 16 50 44q7 15 7 45zM379 706v0h77l-8 -44q-17 -79 -92 -79q-26 0 -87 23q-42 16 -58 16q-28 0 -36 -38h-78q5 51 29 85q28 41 75 41q30 0 71 -16q54 -21 70 -21q26 0 37 33z" />
    <glyph glyph-name="aring" unicode="&#xe5;" horiz-adv-x="542" 
d="M172 346l-123 7q4 46 20 75q48 87 199 87q171 0 202 -94q8 -24 8 -75v-265q0 -52 22 -81h-142q-3 36 -3 39q-60 -51 -148 -51q-75 0 -126 40q-55 43 -55 116q0 130 177 165q106 21 155 37q0 76 -85 76q-64 0 -89 -32q-12 -15 -12 -44zM358 194v55q-40 -20 -105 -30
q-46 -7 -66 -17q-34 -17 -34 -52q0 -59 81 -59q35 0 67 14q37 16 50 44q7 15 7 45zM164 662q0 42 30 72t72 30t72 -30t30 -72t-30 -72t-72 -30t-72 30t-30 72zM224 662q0 -17 12.5 -29.5t29.5 -12.5t29.5 12.5t12.5 29.5t-12.5 29.5t-29.5 12.5t-29.5 -12.5t-12.5 -29.5z
" />
    <glyph glyph-name="ccedilla" unicode="&#xe7;" horiz-adv-x="500" 
d="M492 373l-107 -50q-11 38 -42 61.5t-71 23.5q-61 0 -95 -49q-29 -42 -29 -106t30 -107q34 -49 96 -49q82 0 121 98l102 -54q-33 -98 -125 -134q-26 -10 -76 -19l-26 -34q37 3 66 -11q35 -17 35 -52q0 -77 -154 -77q-20 0 -42 2v31q7 -2 16 -2q64 0 64 26q0 24 -66 24
q-13 0 -20 -1v14l77 80q-51 9 -77 19q-42 16 -76 54q-69 76 -69 189q0 116 69 190.5t184 74.5q73 0 129.5 -37.5t85.5 -104.5z" />
    <glyph glyph-name="eacute" unicode="&#xe9;" 
d="M433 171l102 -59q-95 -127 -244 -127q-119 0 -188 73.5t-69 193.5q0 118 66 190.5t183 72.5q241 0 248 -289h-370q22 -124 142 -124q81 0 130 69zM165 314h234q-15 105 -112 105q-100 0 -122 -105zM280 706h148l-108 -133h-90z" />
    <glyph glyph-name="egrave" unicode="&#xe8;" 
d="M433 171l102 -59q-95 -127 -244 -127q-119 0 -188 73.5t-69 193.5q0 118 66 190.5t183 72.5q241 0 248 -289h-370q22 -124 142 -124q81 0 130 69zM165 314h234q-15 105 -112 105q-100 0 -122 -105zM139 707h147l52 -134h-89z" />
    <glyph glyph-name="ecircumflex" unicode="&#xea;" 
d="M433 171l102 -59q-95 -127 -244 -127q-119 0 -188 73.5t-69 193.5q0 118 66 190.5t183 72.5q241 0 248 -289h-370q22 -124 142 -124q81 0 130 69zM165 314h234q-15 105 -112 105q-100 0 -122 -105zM223 706h118l111 -134h-122l-47 67l-50 -67h-121z" />
    <glyph glyph-name="edieresis" unicode="&#xeb;" 
d="M433 171l102 -59q-95 -127 -244 -127q-119 0 -188 73.5t-69 193.5q0 118 66 190.5t183 72.5q241 0 248 -289h-370q22 -124 142 -124q81 0 130 69zM165 314h234q-15 105 -112 105q-100 0 -122 -105zM125 706h113v-119h-113v119zM326 706h113v-119h-113v119z" />
    <glyph glyph-name="iacute" unicode="&#xed;" horiz-adv-x="250" 
d="M65 500h119v-500h-119v500zM123 706h148l-108 -133h-90z" />
    <glyph glyph-name="igrave" unicode="&#xec;" horiz-adv-x="250" 
d="M65 500h119v-500h-119v500zM-18 707h147l52 -134h-89z" />
    <glyph glyph-name="icircumflex" unicode="&#xee;" horiz-adv-x="250" 
d="M65 500h119v-500h-119v500zM66 706h118l111 -134h-122l-47 67l-50 -67h-121z" />
    <glyph glyph-name="idieresis" unicode="&#xef;" horiz-adv-x="250" 
d="M65 500h119v-500h-119v500zM-32 706h113v-119h-113v119zM169 706h113v-119h-113v119z" />
    <glyph glyph-name="ntilde" unicode="&#xf1;" 
d="M63 0v500h121v-59q14 21 39 39q50 35 115 35q87 0 131 -60q21 -28 27 -72q4 -29 4 -89v-294h-119v255q0 60 -4 76q-17 67 -82 67q-63 0 -92 -56q-19 -37 -19 -125v-217h-121zM389 706v0h77l-8 -44q-17 -79 -92 -79q-26 0 -87 23q-42 16 -58 16q-28 0 -36 -38h-78
q5 51 29 85q28 41 75 41q30 0 71 -16q54 -21 70 -21q26 0 37 33z" />
    <glyph glyph-name="oacute" unicode="&#xf3;" horiz-adv-x="583" 
d="M549 252q0 -118 -68 -191q-69 -76 -186 -76q-118 0 -189 74t-71 193q0 116 69.5 189.5t185.5 73.5t187.5 -73t71.5 -190zM423 254q-2 65 -35 107q-36 46 -99 46q-62 0 -97 -46q-32 -42 -32 -106q0 -66 34 -111q37 -49 101 -49q65 0 99 49q31 43 29 110zM290 706h148
l-108 -133h-90z" />
    <glyph glyph-name="ograve" unicode="&#xf2;" horiz-adv-x="583" 
d="M549 252q0 -118 -68 -191q-69 -76 -186 -76q-118 0 -189 74t-71 193q0 116 69.5 189.5t185.5 73.5t187.5 -73t71.5 -190zM423 254q-2 65 -35 107q-36 46 -99 46q-62 0 -97 -46q-32 -42 -32 -106q0 -66 34 -111q37 -49 101 -49q65 0 99 49q31 43 29 110zM149 707h147
l52 -134h-89z" />
    <glyph glyph-name="ocircumflex" unicode="&#xf4;" horiz-adv-x="583" 
d="M549 252q0 -118 -68 -191q-69 -76 -186 -76q-118 0 -189 74t-71 193q0 116 69.5 189.5t185.5 73.5t187.5 -73t71.5 -190zM423 254q-2 65 -35 107q-36 46 -99 46q-62 0 -97 -46q-32 -42 -32 -106q0 -66 34 -111q37 -49 101 -49q65 0 99 49q31 43 29 110zM233 706h118
l111 -134h-122l-47 67l-50 -67h-121z" />
    <glyph glyph-name="odieresis" unicode="&#xf6;" horiz-adv-x="583" 
d="M549 252q0 -118 -68 -191q-69 -76 -186 -76q-118 0 -189 74t-71 193q0 116 69.5 189.5t185.5 73.5t187.5 -73t71.5 -190zM423 254q-2 65 -35 107q-36 46 -99 46q-62 0 -97 -46q-32 -42 -32 -106q0 -66 34 -111q37 -49 101 -49q65 0 99 49q31 43 29 110zM136 706h113v-119
h-113v119zM337 706h113v-119h-113v119z" />
    <glyph glyph-name="otilde" unicode="&#xf5;" horiz-adv-x="583" 
d="M549 252q0 -118 -68 -191q-69 -76 -186 -76q-118 0 -189 74t-71 193q0 116 69.5 189.5t185.5 73.5t187.5 -73t71.5 -190zM423 254q-2 65 -35 107q-36 46 -99 46q-62 0 -97 -46q-32 -42 -32 -106q0 -66 34 -111q37 -49 101 -49q65 0 99 49q31 43 29 110zM399 706v0h77
l-8 -44q-17 -79 -92 -79q-26 0 -87 23q-42 16 -58 16q-28 0 -36 -38h-78q5 51 29 85q28 41 75 41q30 0 71 -16q54 -21 70 -21q26 0 37 33z" />
    <glyph glyph-name="uacute" unicode="&#xfa;" horiz-adv-x="583" 
d="M397 500h120v-500h-120v51q-66 -63 -162 -63q-67 0 -111 31q-48 34 -58 98q-4 25 -4 94v289h121v-287q0 -37 4 -50q19 -63 93 -63q66 0 97 53q20 35 20 135v212zM290 706h148l-108 -133h-90z" />
    <glyph glyph-name="ugrave" unicode="&#xf9;" horiz-adv-x="583" 
d="M397 500h120v-500h-120v51q-66 -63 -162 -63q-67 0 -111 31q-48 34 -58 98q-4 25 -4 94v289h121v-287q0 -37 4 -50q19 -63 93 -63q66 0 97 53q20 35 20 135v212zM149 707h147l52 -134h-89z" />
    <glyph glyph-name="ucircumflex" unicode="&#xfb;" horiz-adv-x="583" 
d="M397 500h120v-500h-120v51q-66 -63 -162 -63q-67 0 -111 31q-48 34 -58 98q-4 25 -4 94v289h121v-287q0 -37 4 -50q19 -63 93 -63q66 0 97 53q20 35 20 135v212zM233 706h118l111 -134h-122l-47 67l-50 -67h-121z" />
    <glyph glyph-name="udieresis" unicode="&#xfc;" horiz-adv-x="583" 
d="M397 500h120v-500h-120v51q-66 -63 -162 -63q-67 0 -111 31q-48 34 -58 98q-4 25 -4 94v289h121v-287q0 -37 4 -50q19 -63 93 -63q66 0 97 53q20 35 20 135v212zM133 706h113v-119h-113v119zM334 706h113v-119h-113v119z" />
    <glyph glyph-name="degree" unicode="&#xb0;" horiz-adv-x="354" 
d="M5 583q0 71 50.5 121.5t121.5 50.5t121.5 -50.5t50.5 -121.5t-50.5 -121.5t-121.5 -50.5t-121.5 50.5t-50.5 121.5zM105 583q0 -30 21 -51t51 -21t51 21t21 51t-21 51t-51 21t-51 -21t-21 -51z" />
    <glyph glyph-name="registered" unicode="&#xae;" horiz-adv-x="833" 
d="M258 583h155q62 0 91 -7q92 -22 92 -112q0 -75 -86 -107q30 -16 42 -37q6 -11 29 -124q8 -39 23 -67h-109q-12 25 -24 98q-11 67 -21 79q-16 20 -74 20h-23v-197h-95v454zM353 510v-108h57q41 0 59 7q32 12 32 49q0 34 -28 46q-14 6 -77 6h-43zM773 351
q-1 -154 -102 -254t-255 -100q-153 0 -254 101.5t-101 254.5t101 254.5t254 101.5q155 0 256.5 -101.5t100.5 -256.5zM741 352q1 140 -91 232.5t-232 92.5t-232.5 -92t-92.5 -232t92 -232t232 -92q141 0 232 91t92 232z" />
    <glyph glyph-name="copyright" unicode="&#xa9;" horiz-adv-x="833" 
d="M773 352q0 -97 -47 -179.5t-130.5 -129t-179.5 -46.5q-153 0 -254 101.5t-101 254.5q0 155 101 255.5t256 100.5t255 -101t100 -256zM741 352q2 142 -89.5 233.5t-233.5 91.5q-141 0 -233 -92t-92 -233q0 -140 92.5 -231.5t232.5 -91.5t230.5 91.5t92.5 231.5zM546 264
l72 -65q-84 -87 -193 -87t-176 66.5t-67 175.5t67 176.5t176 67.5q108 0 192 -87l-71 -69q-56 59 -122 59q-64 0 -103 -41t-39 -105t40 -105t104 -41q68 0 120 55z" />
    <glyph glyph-name="trademark" unicode="&#x2122;" horiz-adv-x="687" 
d="M655 706v-332h-69l3 191l4 68l-15 -55l-62 -204h-63l-79 258l5 -67l4 -191h-69v332h92l80 -251l76 251h93zM184 648v-274h-71v274h-105v58h278v-58h-102z" />
    <glyph glyph-name="plusminus" unicode="&#xb1;" horiz-adv-x="667" 
d="M386 374v-226h-103v226h-241v103h241v225h103v-225h239v-103h-239zM625 103v-103h-583v103h583z" />
    <glyph glyph-name="mu" unicode="&#xb5;" horiz-adv-x="583" 
d="M397 1v51q-33 -35 -48 -45q-27 -18 -68 -18q-59 0 -98 50v-201h-121v663h121v-259q0 -141 105 -141q70 0 94 57q15 36 15 123v220h120v-500h-120z" />
    <glyph glyph-name="mu" unicode="&#x3bc;" horiz-adv-x="583" 
d="M397 1v51q-33 -35 -48 -45q-27 -18 -68 -18q-59 0 -98 50v-201h-121v663h121v-259q0 -141 105 -141q70 0 94 57q15 36 15 123v220h120v-500h-120z" />
    <glyph glyph-name="logicalnot" unicode="&#xac;" horiz-adv-x="667" 
d="M564 0v242h-564v103h667v-345h-103z" />
    <glyph glyph-name="Agrave" unicode="&#xc0;" horiz-adv-x="646" 
d="M495 0l-41 138h-265l-41 -138h-141l238 706h150l241 -706h-141zM224 253h195l-97 325zM185 895h142l54 -121h-89z" />
    <glyph glyph-name="Atilde" unicode="&#xc3;" horiz-adv-x="646" 
d="M495 0l-41 138h-265l-41 -138h-141l238 706h150l241 -706h-141zM224 253h195l-97 325zM430 895h78q-5 -51 -27 -85q-27 -42 -74 -42q-24 0 -74.5 19.5t-70.5 19.5q-28 0 -36 -38h-78q5 51 29 85q28 41 75 41q31 0 72 -17q51 -21 69 -21q28 0 37 38z" />
    <glyph glyph-name="Otilde" unicode="&#xd5;" horiz-adv-x="771" 
d="M725 353q-1 -161 -89 -263q-92 -108 -251 -108q-154 0 -248 109q-89 104 -89 261q0 159 89 262q94 110 250 110q157 0 250 -109q89 -103 88 -262zM593 338q2 108 -47 181q-56 84 -160 84q-98 0 -153 -76q-49 -67 -49 -169q0 -106 48 -175q55 -79 157 -79q96 0 151 71
q51 64 53 163zM492 895h78q-5 -51 -27 -85q-27 -42 -74 -42q-24 0 -74.5 19.5t-70.5 19.5q-28 0 -36 -38h-78q5 51 29 85q28 41 75 41q31 0 72 -17q51 -21 69 -21q28 0 37 38z" />
    <glyph glyph-name="divide" unicode="&#xf7;" horiz-adv-x="667" 
d="M265 129q0 29 19.5 48.5t48.5 19.5t48.5 -19.5t19.5 -48.5t-19.5 -48.5t-48.5 -19.5q-28 0 -48 20t-20 48zM666 342v-103h-666v103h666zM265 452q0 29 19.5 48.5t48.5 19.5t48.5 -19.5t19.5 -48.5t-19.5 -48.5t-48.5 -19.5q-28 0 -48 20t-20 48z" />
    <glyph glyph-name="ydieresis" unicode="&#xff;" horiz-adv-x="479" 
d="M347 500h123l-155 -530q-21 -73 -54 -105q-39 -37 -110 -37q-30 0 -72 6v105q17 -3 32 -3q30 0 53 12q29 15 29 42l-181 510h129l111 -373zM82 706h113v-119h-113v119zM283 706h113v-119h-113v119z" />
    <glyph glyph-name="Ydieresis" unicode="&#x178;" horiz-adv-x="625" 
d="M614 706l-238 -427v-279h-130v279l-236 427h149l153 -293l155 293h147zM156 895h112v-123h-112v123zM356 895h114v-123h-114v123z" />
    <glyph glyph-name="Acircumflex" unicode="&#xc2;" horiz-adv-x="646" 
d="M495 0l-41 138h-265l-41 -138h-141l238 706h150l241 -706h-141zM224 253h195l-97 325zM265 895h118l104 -122h-121l-42 56l-42 -56h-117z" />
    <glyph glyph-name="Ecircumflex" unicode="&#xca;" horiz-adv-x="625" 
d="M580 588h-372v-166h340v-114h-340v-189h397v-119h-527v706h502v-118zM254 895h118l104 -122h-121l-42 56l-42 -56h-117z" />
    <glyph glyph-name="Aacute" unicode="&#xc1;" horiz-adv-x="646" 
d="M495 0l-41 138h-265l-41 -138h-141l238 706h150l241 -706h-141zM224 253h195l-97 325zM268 775l53 120h143l-107 -120h-89z" />
    <glyph glyph-name="Edieresis" unicode="&#xcb;" horiz-adv-x="625" 
d="M580 588h-372v-166h340v-114h-340v-189h397v-119h-527v706h502v-118zM156 895h112v-123h-112v123zM356 895h114v-123h-114v123z" />
    <glyph glyph-name="Egrave" unicode="&#xc8;" horiz-adv-x="625" 
d="M580 588h-372v-166h340v-114h-340v-189h397v-119h-527v706h502v-118zM174 895h142l54 -121h-89z" />
    <glyph glyph-name="Iacute" unicode="&#xcd;" horiz-adv-x="292" 
d="M80 706h130v-706h-130v706zM91 775l53 120h143l-107 -120h-89z" />
    <glyph glyph-name="Icircumflex" unicode="&#xce;" horiz-adv-x="292" 
d="M80 706h130v-706h-130v706zM88 895h118l104 -122h-121l-42 56l-42 -56h-117z" />
    <glyph glyph-name="Idieresis" unicode="&#xcf;" horiz-adv-x="292" 
d="M80 706h130v-706h-130v706zM-10 895h112v-123h-112v123zM190 895h114v-123h-114v123z" />
    <glyph glyph-name="Igrave" unicode="&#xcc;" horiz-adv-x="292" 
d="M80 706h130v-706h-130v706zM8 895h142l54 -121h-89z" />
    <glyph glyph-name="Oacute" unicode="&#xd3;" horiz-adv-x="771" 
d="M725 353q-1 -161 -89 -263q-92 -108 -251 -108q-154 0 -248 109q-89 104 -89 261q0 159 89 262q94 110 250 110q157 0 250 -109q89 -103 88 -262zM593 338q2 108 -47 181q-56 84 -160 84q-98 0 -153 -76q-49 -67 -49 -169q0 -106 48 -175q55 -79 157 -79q96 0 151 71
q51 64 53 163zM330 775l53 120h143l-107 -120h-89z" />
    <glyph glyph-name="Ocircumflex" unicode="&#xd4;" horiz-adv-x="771" 
d="M725 353q-1 -161 -89 -263q-92 -108 -251 -108q-154 0 -248 109q-89 104 -89 261q0 159 89 262q94 110 250 110q157 0 250 -109q89 -103 88 -262zM593 338q2 108 -47 181q-56 84 -160 84q-98 0 -153 -76q-49 -67 -49 -169q0 -106 48 -175q55 -79 157 -79q96 0 151 71
q51 64 53 163zM327 895h118l104 -122h-121l-42 56l-42 -56h-117z" />
    <glyph glyph-name="Ograve" unicode="&#xd2;" horiz-adv-x="771" 
d="M725 353q-1 -161 -89 -263q-92 -108 -251 -108q-154 0 -248 109q-89 104 -89 261q0 159 89 262q94 110 250 110q157 0 250 -109q89 -103 88 -262zM593 338q2 108 -47 181q-56 84 -160 84q-98 0 -153 -76q-49 -67 -49 -169q0 -106 48 -175q55 -79 157 -79q96 0 151 71
q51 64 53 163zM247 895h142l54 -121h-89z" />
    <glyph glyph-name="Uacute" unicode="&#xda;" horiz-adv-x="729" 
d="M516 706h133v-445q0 -76 -10 -111q-16 -56 -66 -99q-80 -69 -213 -69q-96 0 -164 36q-81 42 -106 126q-10 33 -10 141v421h132v-434q0 -63 9 -86q30 -76 143 -76q127 0 147 93q5 23 5 76v427zM310 775l53 120h143l-107 -120h-89z" />
    <glyph glyph-name="Ucircumflex" unicode="&#xdb;" horiz-adv-x="729" 
d="M516 706h133v-445q0 -76 -10 -111q-16 -56 -66 -99q-80 -69 -213 -69q-96 0 -164 36q-81 42 -106 126q-10 33 -10 141v421h132v-434q0 -63 9 -86q30 -76 143 -76q127 0 147 93q5 23 5 76v427zM307 895h118l104 -122h-121l-42 56l-42 -56h-117z" />
    <glyph glyph-name="Ugrave" unicode="&#xd9;" horiz-adv-x="729" 
d="M516 706h133v-445q0 -76 -10 -111q-16 -56 -66 -99q-80 -69 -213 -69q-96 0 -164 36q-81 42 -106 126q-10 33 -10 141v421h132v-434q0 -63 9 -86q30 -76 143 -76q127 0 147 93q5 23 5 76v427zM227 895h142l54 -121h-89z" />
    <glyph glyph-name="glyph233" horiz-adv-x="271" 
 />
    <glyph glyph-name="glyph234" horiz-adv-x="271" 
 />
    <glyph glyph-name="euro" unicode="&#x20ac;" horiz-adv-x="750" 
d="M710 590l-49 -104q-66 99 -206 99q-157 0 -200 -120h396l-48 -100h-366q-2 -20 -2 -34q0 -11 2 -31h335l-47 -100h-260q19 -55 79 -85q54 -27 116 -27q128 0 200 82v-120q-37 -30 -102 -47q-57 -15 -113 -15q-113 0 -194 53q-85 55 -121 159h-125l50 100h51q-1 14 -1 32
q0 19 1 33h-101l50 100h75q30 107 126 166q87 54 204 54q155 0 250 -95z" />
    <glyph glyph-name="glyph234" horiz-adv-x="271" 
 />
    <glyph glyph-name="u20AC" horiz-adv-x="1000" 
 />
    <glyph glyph-name="ch317" horiz-adv-x="271" 
 />
    <glyph glyph-name="ch318" horiz-adv-x="271" 
 />
    <glyph glyph-name="ch319" horiz-adv-x="271" 
 />
    <glyph glyph-name="glyph231" horiz-adv-x="271" 
 />
  </font>
</defs>
</svg>
